<?xml version="1.0" encoding="UTF-8"?>
<svg id="Layer_2" data-name="Layer 2" xmlns="http://www.w3.org/2000/svg" viewBox="0 0 429.19 261.88">
  <defs>
    <style>
      .cls-1 {
        fill: #f1f2f2;
      }

      .cls-2 {
        fill: #263575;
      }
    </style>
  </defs>
  <g id="_2_26_25" data-name="2 26 25">
    <g>
      <rect class="cls-1" x="0" y="0" width="429.19" height="261.88" rx="98.68" ry="98.68"/>
      <g>
        <path class="cls-2" d="M341.61,75.36s12.04-21.42,18.77-12.47c6.73,8.95-21.6,35.09-25.91,33.05-4.1-1.93-2.01-5.17,7.14-20.58Z"/>
        <path class="cls-2" d="M321.31,57.91c-9.35-1.6-18.96-3.19-27.93-6.36-8.31-2.94-11.54-6.9-14.82-15.14-5.56-13.95-20.61-27.46-35.99-20.22-17.27,8.12-29.63,27.55-41.03,42.06-3.2,4.05-6.36,8.06-9.47,11.84-13.72,16.61-26.62,28.93-37.39,22.85-9.31-5.25-20.29-4.19-29.99-.63-9.76,3.59-18.66,9.43-26.76,15.88-3.04,2.42-26.66,19.77-28.59,21.31,0,0-.01.01-.02.02-1.07.85-.6,2.57.75,2.76,5.29.75,18.94.9,36.95.9s37.44.02,56.16,0c40.19-.03,37.63,0,77.79,0,7.9.03,42.7-.12,50.6,0,5.26.08,25.04,0,30.32,0,34.7,0,16.13-9.9,3.04-31.39-12.15-19.94,29.23-38.26-3.62-43.87ZM228.62,96.22c-.86,0-1.56.7-1.56,1.56v5.71c0,.17-.41,1.85-.51,2.13-1.39,3.77-6.91,4.53-9.38,1.42-.3-.37-1.21-2.17-1.21-2.5v-6.77c0-.86-.7-1.56-1.56-1.56h-7.02c-.15,0-1.18-.54-1.44-.67-3.57-1.98-3.53-7.58,0-9.49.22-.11,1.6-.68,1.69-.68h6.76c.86,0,1.56-.7,1.56-1.56v-6.77c0-.12.6-1.37.75-1.64,2.23-4.21,8.55-3.46,9.96.97.06.2.39,1.63.39,1.72v5.71c0,.86.7,1.56,1.56,1.56h6.76c.12,0,1.58.68,1.81.84,3.21,2.09,3.31,6.85.15,9.07-.22.15-1.6.94-1.7.94h-7.02ZM276.91,108.9c-7.9-1.09-8.06-13.93-.23-15.26,12.52-2.11,12.81,17,.23,15.26ZM293.68,87.9c-10.8,2.91-13.52-13.63-3.79-15.16,10.56-1.65,12.69,12.76,3.79,15.16Z"/>
      </g>
      <g>
        <path class="cls-2" d="M147.56,145.09h5.39l6.72,17.75,6.76-17.75h5.29l-9.59,24.15h-4.97l-9.59-24.15Z"/>
        <path class="cls-2" d="M173.64,146.03c0-1.61,1.26-2.84,2.87-2.84s2.87,1.23,2.87,2.84-1.26,2.83-2.87,2.83-2.87-1.23-2.87-2.83ZM174.23,151.39h4.55v17.85h-4.55v-17.85Z"/>
        <path class="cls-2" d="M183.19,151.39h4.55v2.7c1.4-1.86,3.33-2.98,5.67-2.98h.67v4.69h-.67c-3.64,0-5.67,1.92-5.67,4.94v8.51h-4.55v-17.85Z"/>
        <path class="cls-2" d="M195.16,159.86c0-5.04,3.75-8.89,8.68-8.89,2.42,0,4.41.91,5.85,2.45v-2.03h4.55v15.93c0,5.42-3.68,9-9.17,9-4.62,0-8.19-2.48-8.89-6.37h4.69c.53,1.43,2.24,2.34,4.24,2.34,2.8,0,4.59-1.79,4.59-4.76v-1.19c-1.44,1.5-3.43,2.42-5.81,2.42-4.97,0-8.72-3.82-8.72-8.89ZM209.69,159.86c0-2.62-2.14-4.62-4.9-4.62s-4.94,2-4.94,4.62,2.1,4.66,4.94,4.66,4.9-2,4.9-4.66Z"/>
        <path class="cls-2" d="M217.98,146.03c0-1.61,1.26-2.84,2.87-2.84s2.87,1.23,2.87,2.84-1.26,2.83-2.87,2.83-2.87-1.23-2.87-2.83ZM218.58,151.39h4.55v17.85h-4.55v-17.85Z"/>
        <path class="cls-2" d="M227.54,151.39h4.55v2c1.4-1.58,3.36-2.42,5.67-2.42,4.2,0,6.97,2.73,6.97,6.93v5.42c0,.95.56,1.51,1.51,1.51h.38v4.41h-1.29c-3.4,0-5.15-1.68-5.15-4.94v-4.94c0-2.42-1.54-3.99-3.89-3.99-2.52,0-4.2,1.61-4.2,4.06v9.8h-4.55v-17.85Z"/>
        <path class="cls-2" d="M248.61,146.03c0-1.61,1.26-2.84,2.87-2.84s2.87,1.23,2.87,2.84-1.26,2.83-2.87,2.83-2.87-1.23-2.87-2.83ZM249.2,151.39h4.55v17.85h-4.55v-17.85Z"/>
        <path class="cls-2" d="M257.15,160.31c0-5.32,3.75-9.35,8.72-9.35,2.38,0,4.38.94,5.81,2.52v-2.1h4.55v11.94c0,.95.53,1.51,1.51,1.51h.35v4.41h-1.3c-2.45,0-4.03-.88-4.73-2.59-1.44,1.85-3.61,3.01-6.2,3.01-4.97,0-8.72-4.03-8.72-9.35ZM271.67,160.31c0-2.8-2.1-4.94-4.94-4.94s-4.9,2.13-4.9,4.94,2.1,4.94,4.9,4.94,4.94-2.14,4.94-4.94Z"/>
        <path class="cls-2" d="M81.08,179.09h4.83v24.15h-4.83v-24.15Z"/>
        <path class="cls-2" d="M90.53,185.39h4.55v2c1.4-1.58,3.36-2.42,5.67-2.42,4.2,0,6.97,2.73,6.97,6.93v5.42c0,.95.56,1.51,1.51,1.51h.38v4.41h-1.29c-3.4,0-5.15-1.68-5.15-4.94v-4.94c0-2.42-1.54-3.99-3.89-3.99-2.52,0-4.2,1.61-4.2,4.06v9.8h-4.55v-17.85Z"/>
        <path class="cls-2" d="M113.18,197.81v-8.26h-2.84v-4.17h1.61c.94,0,1.47-.49,1.47-1.44v-3.33h4.31v4.76h5.81v4.17h-5.81v7.81c0,1.05.7,1.72,1.75,1.72s1.79-.77,1.79-2.03h4.06c0,3.78-2.42,6.2-6.16,6.2s-5.99-2.17-5.99-5.43Z"/>
        <path class="cls-2" d="M126.44,194.31c0-5.32,4.13-9.35,9.59-9.35s9.59,4.03,9.59,9.42c0,.49-.04,1.05-.14,1.5h-14.18c.6,2.31,2.45,3.82,4.9,3.82,1.86,0,3.4-.84,4.2-2h4.94c-1.37,3.54-4.9,5.95-9.24,5.95-5.53,0-9.66-4.03-9.66-9.35ZM131.34,192.56h9.42c-.56-2.17-2.38-3.64-4.73-3.64s-4.06,1.44-4.69,3.64Z"/>
        <path class="cls-2" d="M148.81,185.39h4.55v2.7c1.4-1.86,3.33-2.98,5.67-2.98h.67v4.69h-.67c-3.64,0-5.67,1.92-5.67,4.94v8.51h-4.55v-17.85Z"/>
        <path class="cls-2" d="M161.9,191.44h10.22v4.41h-10.22v-4.41Z"/>
        <path class="cls-2" d="M175.41,191.16c0-7.11,5.46-12.5,12.74-12.5,6.13,0,11.03,3.92,12.15,9.42h-5.11c-.98-2.84-3.75-4.76-7.04-4.76-4.45,0-7.81,3.36-7.81,7.84s3.36,7.84,7.81,7.84c3.29,0,6.06-1.92,7.04-4.76h5.11c-1.12,5.5-6.02,9.42-12.15,9.42-7.28,0-12.74-5.39-12.74-12.5Z"/>
        <path class="cls-2" d="M202.6,194.31c0-5.32,4.13-9.35,9.59-9.35s9.59,4.03,9.59,9.35-4.13,9.35-9.59,9.35-9.59-4.03-9.59-9.35ZM217.09,194.31c0-2.8-2.07-4.94-4.9-4.94s-4.9,2.13-4.9,4.94,2.1,4.94,4.9,4.94,4.9-2.14,4.9-4.94Z"/>
        <path class="cls-2" d="M225,197.95v-19.92h4.55v18.94c0,1.16.7,1.86,1.96,1.86h1.08v4.41h-1.75c-3.85,0-5.85-1.82-5.85-5.29Z"/>
        <path class="cls-2" d="M235.01,197.95v-19.92h4.55v18.94c0,1.16.7,1.86,1.96,1.86h1.08v4.41h-1.75c-3.85,0-5.85-1.82-5.85-5.29Z"/>
        <path class="cls-2" d="M243.86,194.31c0-5.32,4.13-9.35,9.59-9.35s9.59,4.03,9.59,9.42c0,.49-.04,1.05-.14,1.5h-14.18c.6,2.31,2.45,3.82,4.9,3.82,1.86,0,3.4-.84,4.2-2h4.94c-1.37,3.54-4.9,5.95-9.24,5.95-5.53,0-9.66-4.03-9.66-9.35ZM248.77,192.56h9.42c-.56-2.17-2.38-3.64-4.73-3.64s-4.06,1.44-4.69,3.64Z"/>
        <path class="cls-2" d="M265.25,193.86c0-5.04,3.75-8.89,8.68-8.89,2.42,0,4.41.91,5.85,2.45v-2.03h4.55v15.93c0,5.42-3.68,9-9.17,9-4.62,0-8.19-2.48-8.89-6.37h4.69c.53,1.43,2.24,2.34,4.24,2.34,2.8,0,4.59-1.79,4.59-4.76v-1.19c-1.44,1.5-3.43,2.42-5.81,2.42-4.97,0-8.72-3.82-8.72-8.89ZM279.78,193.86c0-2.62-2.14-4.62-4.9-4.62s-4.94,2-4.94,4.62,2.1,4.66,4.94,4.66,4.9-2,4.9-4.66Z"/>
        <path class="cls-2" d="M288.07,180.03c0-1.61,1.26-2.84,2.87-2.84s2.87,1.23,2.87,2.84-1.26,2.83-2.87,2.83-2.87-1.23-2.87-2.83ZM288.66,185.39h4.55v17.85h-4.55v-17.85Z"/>
        <path class="cls-2" d="M296.61,194.31c0-5.32,3.75-9.35,8.72-9.35,2.38,0,4.38.94,5.81,2.52v-2.1h4.55v11.94c0,.95.53,1.51,1.51,1.51h.35v4.41h-1.3c-2.45,0-4.03-.88-4.73-2.59-1.44,1.85-3.61,3.01-6.2,3.01-4.97,0-8.72-4.03-8.72-9.35ZM311.14,194.31c0-2.8-2.1-4.94-4.94-4.94s-4.9,2.13-4.9,4.94,2.1,4.94,4.9,4.94,4.94-2.14,4.94-4.94Z"/>
        <path class="cls-2" d="M321.77,197.81v-8.26h-2.84v-4.17h1.61c.94,0,1.47-.49,1.47-1.44v-3.33h4.31v4.76h5.81v4.17h-5.81v7.81c0,1.05.7,1.72,1.75,1.72s1.79-.77,1.79-2.03h4.06c0,3.78-2.42,6.2-6.16,6.2s-5.99-2.17-5.99-5.43Z"/>
        <path class="cls-2" d="M335.04,194.31c0-5.32,4.13-9.35,9.59-9.35s9.59,4.03,9.59,9.42c0,.49-.04,1.05-.14,1.5h-14.18c.6,2.31,2.45,3.82,4.9,3.82,1.86,0,3.4-.84,4.2-2h4.94c-1.37,3.54-4.9,5.95-9.24,5.95-5.53,0-9.66-4.03-9.66-9.35ZM339.94,192.56h9.42c-.56-2.17-2.38-3.64-4.73-3.64s-4.06,1.44-4.69,3.64Z"/>
        <path class="cls-2" d="M124.83,225.16c0-7.11,5.46-12.5,12.74-12.5,5.67,0,10.4,3.33,11.8,8.02h-5.39c-1.3-2.07-3.64-3.36-6.41-3.36-4.45,0-7.81,3.36-7.81,7.84s3.36,7.84,7.81,7.84c3.47,0,6.13-2.03,7.04-4.97h-6.27v-4.38h11.48v13.58h-4.1v-3.64c-1.68,2.66-4.48,4.06-8.16,4.06-7.28,0-12.74-5.39-12.74-12.5Z"/>
        <path class="cls-2" d="M152.69,228.31c0-5.32,3.75-9.35,8.72-9.35,2.38,0,4.38.94,5.81,2.52v-2.1h4.55v11.94c0,.95.53,1.51,1.51,1.51h.35v4.41h-1.3c-2.45,0-4.03-.88-4.73-2.59-1.44,1.85-3.61,3.01-6.2,3.01-4.97,0-8.72-4.03-8.72-9.35ZM167.22,228.31c0-2.8-2.1-4.94-4.94-4.94s-4.9,2.13-4.9,4.94,2.1,4.94,4.9,4.94,4.94-2.14,4.94-4.94Z"/>
        <path class="cls-2" d="M176.35,219.39h4.55v1.85c1.33-1.5,3.12-2.27,5.29-2.27,2.56,0,4.59,1.15,5.67,3.08,1.4-2,3.5-3.08,6.13-3.08,3.92,0,6.55,2.62,6.55,6.65v5.71c0,.95.56,1.51,1.51,1.51h.38v4.41h-1.29c-3.4,0-5.15-1.68-5.15-4.94v-5.32c0-2.17-1.37-3.61-3.5-3.61-2.24,0-3.75,1.47-3.75,3.67v10.19h-4.55v-10.26c0-2.17-1.4-3.61-3.5-3.61-2.24,0-3.78,1.47-3.78,3.67v10.19h-4.55v-17.85Z"/>
        <path class="cls-2" d="M207.92,228.31c0-5.32,4.13-9.35,9.59-9.35s9.59,4.03,9.59,9.42c0,.49-.04,1.05-.14,1.5h-14.18c.6,2.31,2.45,3.82,4.9,3.82,1.86,0,3.4-.84,4.2-2h4.94c-1.37,3.54-4.9,5.95-9.24,5.95-5.53,0-9.66-4.03-9.66-9.35ZM212.82,226.56h9.42c-.56-2.17-2.38-3.64-4.73-3.64s-4.06,1.44-4.69,3.64Z"/>
        <path class="cls-2" d="M236.58,229.36h4.97c0,2.17,1.44,3.64,3.4,3.64s3.4-1.47,3.4-3.4v-16.52h4.83v16.52c0,4.59-3.54,8.05-8.3,8.05s-8.3-3.46-8.3-8.3Z"/>
        <path class="cls-2" d="M256.32,228.31c0-5.32,3.75-9.35,8.72-9.35,2.38,0,4.38.94,5.81,2.52v-2.1h4.55v11.94c0,.95.53,1.51,1.51,1.51h.35v4.41h-1.3c-2.45,0-4.03-.88-4.73-2.59-1.44,1.85-3.61,3.01-6.2,3.01-4.97,0-8.72-4.03-8.72-9.35ZM270.85,228.31c0-2.8-2.1-4.94-4.94-4.94s-4.9,2.13-4.9,4.94,2.1,4.94,4.9,4.94,4.94-2.14,4.94-4.94Z"/>
        <path class="cls-2" d="M279.98,219.39h4.55v1.85c1.33-1.5,3.12-2.27,5.29-2.27,2.56,0,4.59,1.15,5.67,3.08,1.4-2,3.5-3.08,6.13-3.08,3.92,0,6.55,2.62,6.55,6.65v5.71c0,.95.56,1.51,1.51,1.51h.38v4.41h-1.29c-3.4,0-5.15-1.68-5.15-4.94v-5.32c0-2.17-1.37-3.61-3.5-3.61-2.24,0-3.75,1.47-3.75,3.67v10.19h-4.55v-10.26c0-2.17-1.4-3.61-3.5-3.61-2.24,0-3.78,1.47-3.78,3.67v10.19h-4.55v-17.85Z"/>
      </g>
    </g>
  </g>
</svg>