<?xml version="1.0" encoding="UTF-8"?>
<svg id="Layer_2" data-name="Layer 2" xmlns="http://www.w3.org/2000/svg" xmlns:xlink="http://www.w3.org/1999/xlink" viewBox="0 0 508.46 314.76">
  <defs>
    <style>
      .cls-1 {
        fill: #25408f;
      }

      .cls-2 {
        fill: #fff;
      }

      .cls-3 {
        fill: none;
      }

      .cls-4 {
        filter: url(#drop-shadow-1);
      }

      .cls-5 {
        clip-path: url(#clippath);
      }
    </style>
    <clipPath id="clippath">
      <rect class="cls-3" y="0" width="508.46" height="314.76"/>
    </clipPath>
    <filter id="drop-shadow-1" x="-17.4" y="-11" width="544" height="354" filterUnits="userSpaceOnUse">
      <feOffset dx="0" dy="9"/>
      <feGaussianBlur result="blur" stdDeviation="9"/>
      <feFlood flood-color="#263575" flood-opacity=".2"/>
      <feComposite in2="blur" operator="in"/>
      <feComposite in="SourceGraphic"/>
    </filter>
  </defs>
  <g id="Layer_3" data-name="Layer 3">
    <g class="cls-5">
      <g class="cls-4">
        <rect class="cls-2" x="9.93" y="7.51" width="489.27" height="298.54" rx="98.68" ry="98.68"/>
        <g>
          <path class="cls-1" d="M399.36,93.42s13.72-24.42,21.4-14.22c7.67,10.2-24.62,40-29.54,37.68s-2.29-5.89,8.14-23.46Z"/>
          <path class="cls-1" d="M376.22,73.52c-10.66-1.82-21.61-3.63-31.84-7.25-9.48-3.35-13.16-7.87-16.9-17.26-6.34-15.9-23.5-31.3-41.03-23.06-19.69,9.26-33.78,31.41-46.77,47.95-3.64,4.62-7.25,9.19-10.8,13.49-15.64,18.93-30.34,32.98-42.62,26.04-10.61-5.99-23.13-4.78-34.19-.71-11.13,4.1-21.27,10.75-30.5,18.11-3.47,2.76-30.39,22.54-32.59,24.29,0,0-.01.01-.02.02-1.22.97-.68,2.93.85,3.15,6.03.86,21.59,1.02,42.12,1.02s42.68.02,64.02,0c45.82-.04,42.9,0,88.68,0,9,.03,48.68-.13,57.68,0,6,.09,28.54,0,34.57,0,39.55,0,18.39-11.29,3.47-35.78-13.85-22.73,33.32-43.62-4.13-50.01ZM270.56,117.2c-.98,0-1.78.8-1.78,1.78v6.51c0,.2-.47,2.11-.58,2.43-1.59,4.3-7.88,5.16-10.69,1.62-.34-.43-1.38-2.47-1.38-2.84v-7.72c0-.98-.8-1.78-1.78-1.78h-8.01c-.17,0-1.35-.61-1.64-.77-4.07-2.25-4.03-8.64.01-10.82.25-.12,1.83-.78,1.93-.78h7.71c.98,0,1.78-.8,1.78-1.78v-7.72c0-.13.69-1.57.85-1.87,2.54-4.8,9.75-3.94,11.36,1.11.07.23.45,1.86.45,1.96v6.51c0,.98.8,1.78,1.78,1.78h7.71c.13,0,1.8.78,2.07.95,3.65,2.39,3.77,7.81.18,10.34-.25.17-1.83,1.07-1.94,1.07h-8.01ZM325.6,131.65c-9.01-1.25-9.19-15.88-.26-17.4,14.27-2.41,14.6,19.38.26,17.4ZM344.72,107.71c-12.31,3.32-15.41-15.54-4.32-17.28,12.04-1.88,14.47,14.54,4.32,17.28Z"/>
        </g>
        <g>
          <path class="cls-1" d="M178.15,172.91h6.15l7.66,20.23,7.7-20.23h6.02l-10.93,27.53h-5.67l-10.93-27.53Z"/>
          <path class="cls-1" d="M207.87,173.98c0-1.84,1.44-3.23,3.27-3.23s3.27,1.4,3.27,3.23-1.44,3.23-3.27,3.23-3.27-1.4-3.27-3.23ZM208.55,180.09h5.19v20.35h-5.19v-20.35Z"/>
          <path class="cls-1" d="M218.77,180.09h5.19v3.07c1.6-2.11,3.79-3.39,6.46-3.39h.76v5.35h-.76c-4.15,0-6.46,2.19-6.46,5.63v9.7h-5.19v-20.35Z"/>
          <path class="cls-1" d="M232.41,189.75c0-5.75,4.27-10.14,9.9-10.14,2.75,0,5.03,1.04,6.66,2.79v-2.31h5.19v18.16c0,6.18-4.19,10.25-10.45,10.25-5.27,0-9.34-2.83-10.14-7.26h5.35c.6,1.64,2.55,2.67,4.83,2.67,3.19,0,5.23-2.03,5.23-5.43v-1.36c-1.64,1.72-3.91,2.75-6.62,2.75-5.67,0-9.94-4.35-9.94-10.14ZM248.97,189.75c0-2.99-2.43-5.27-5.59-5.27s-5.63,2.27-5.63,5.27,2.39,5.31,5.63,5.31,5.59-2.27,5.59-5.31Z"/>
          <path class="cls-1" d="M258.43,173.98c0-1.84,1.44-3.23,3.27-3.23s3.27,1.4,3.27,3.23-1.44,3.23-3.27,3.23-3.27-1.4-3.27-3.23ZM259.1,180.09h5.19v20.35h-5.19v-20.35Z"/>
          <path class="cls-1" d="M269.32,180.09h5.19v2.27c1.6-1.8,3.83-2.75,6.46-2.75,4.79,0,7.94,3.11,7.94,7.9v6.18c0,1.08.64,1.72,1.72,1.72h.44v5.03h-1.48c-3.87,0-5.87-1.92-5.87-5.63v-5.63c0-2.75-1.76-4.55-4.43-4.55-2.87,0-4.79,1.84-4.79,4.63v11.17h-5.19v-20.35Z"/>
          <path class="cls-1" d="M293.34,173.98c0-1.84,1.44-3.23,3.27-3.23s3.27,1.4,3.27,3.23-1.44,3.23-3.27,3.23-3.27-1.4-3.27-3.23ZM294.02,180.09h5.19v20.35h-5.19v-20.35Z"/>
          <path class="cls-1" d="M303.07,190.26c0-6.06,4.27-10.65,9.94-10.65,2.71,0,4.99,1.08,6.62,2.87v-2.39h5.19v13.61c0,1.08.6,1.72,1.72,1.72h.4v5.03h-1.48c-2.79,0-4.59-1-5.39-2.95-1.64,2.11-4.11,3.43-7.06,3.43-5.67,0-9.94-4.59-9.94-10.65ZM319.63,190.26c0-3.19-2.39-5.63-5.63-5.63s-5.59,2.43-5.59,5.63,2.39,5.63,5.59,5.63,5.63-2.43,5.63-5.63Z"/>
          <path class="cls-1" d="M102.36,211.67h5.51v27.53h-5.51v-27.53Z"/>
          <path class="cls-1" d="M113.13,218.85h5.19v2.27c1.6-1.8,3.83-2.75,6.46-2.75,4.79,0,7.94,3.11,7.94,7.9v6.18c0,1.08.64,1.72,1.72,1.72h.44v5.03h-1.48c-3.87,0-5.87-1.92-5.87-5.63v-5.63c0-2.75-1.76-4.55-4.43-4.55-2.87,0-4.79,1.84-4.79,4.63v11.17h-5.19v-20.35Z"/>
          <path class="cls-1" d="M138.95,233.01v-9.42h-3.23v-4.75h1.83c1.08,0,1.68-.56,1.68-1.64v-3.79h4.91v5.43h6.62v4.75h-6.62v8.9c0,1.2.8,1.96,2,1.96s2.04-.88,2.04-2.31h4.63c0,4.31-2.75,7.06-7.02,7.06s-6.82-2.47-6.82-6.18Z"/>
          <path class="cls-1" d="M154.07,229.02c0-6.06,4.71-10.65,10.93-10.65s10.93,4.59,10.93,10.73c0,.56-.04,1.2-.16,1.72h-16.16c.68,2.63,2.79,4.35,5.59,4.35,2.12,0,3.87-.96,4.79-2.27h5.63c-1.56,4.03-5.59,6.78-10.53,6.78-6.3,0-11.01-4.59-11.01-10.65ZM159.66,227.03h10.73c-.64-2.47-2.71-4.15-5.39-4.15s-4.63,1.64-5.35,4.15Z"/>
          <path class="cls-1" d="M179.57,218.85h5.19v3.07c1.6-2.11,3.79-3.39,6.46-3.39h.76v5.35h-.76c-4.15,0-6.46,2.19-6.46,5.63v9.7h-5.19v-20.35Z"/>
          <path class="cls-1" d="M194.49,225.75h11.65v5.03h-11.65v-5.03Z"/>
          <path class="cls-1" d="M209.89,225.43c0-8.1,6.22-14.24,14.52-14.24,6.98,0,12.57,4.47,13.85,10.73h-5.83c-1.12-3.23-4.27-5.43-8.02-5.43-5.07,0-8.9,3.83-8.9,8.94s3.83,8.94,8.9,8.94c3.75,0,6.9-2.19,8.02-5.43h5.83c-1.28,6.26-6.86,10.73-13.85,10.73-8.3,0-14.52-6.14-14.52-14.24Z"/>
          <path class="cls-1" d="M240.89,229.02c0-6.06,4.71-10.65,10.93-10.65s10.93,4.59,10.93,10.65-4.71,10.65-10.93,10.65-10.93-4.59-10.93-10.65ZM257.41,229.02c0-3.19-2.35-5.63-5.59-5.63s-5.59,2.43-5.59,5.63,2.39,5.63,5.59,5.63,5.59-2.43,5.59-5.63Z"/>
          <path class="cls-1" d="M266.43,233.17v-22.7h5.19v21.59c0,1.32.8,2.11,2.23,2.11h1.24v5.03h-2c-4.39,0-6.66-2.07-6.66-6.03Z"/>
          <path class="cls-1" d="M277.84,233.17v-22.7h5.19v21.59c0,1.32.8,2.11,2.23,2.11h1.24v5.03h-2c-4.39,0-6.66-2.07-6.66-6.03Z"/>
          <path class="cls-1" d="M287.93,229.02c0-6.06,4.71-10.65,10.93-10.65s10.93,4.59,10.93,10.73c0,.56-.04,1.2-.16,1.72h-16.16c.68,2.63,2.79,4.35,5.59,4.35,2.11,0,3.87-.96,4.79-2.27h5.63c-1.56,4.03-5.59,6.78-10.53,6.78-6.3,0-11.01-4.59-11.01-10.65ZM293.52,227.03h10.73c-.64-2.47-2.71-4.15-5.39-4.15s-4.63,1.64-5.35,4.15Z"/>
          <path class="cls-1" d="M312.31,228.51c0-5.75,4.27-10.14,9.9-10.14,2.75,0,5.03,1.04,6.66,2.79v-2.31h5.19v18.16c0,6.18-4.19,10.25-10.45,10.25-5.27,0-9.34-2.83-10.14-7.26h5.35c.6,1.64,2.55,2.67,4.83,2.67,3.19,0,5.23-2.03,5.23-5.43v-1.36c-1.64,1.72-3.91,2.75-6.62,2.75-5.67,0-9.94-4.35-9.94-10.14ZM328.87,228.51c0-2.99-2.43-5.27-5.59-5.27s-5.63,2.27-5.63,5.27,2.39,5.31,5.63,5.31,5.59-2.27,5.59-5.31Z"/>
          <path class="cls-1" d="M338.32,212.74c0-1.84,1.44-3.23,3.27-3.23s3.27,1.4,3.27,3.23-1.44,3.23-3.27,3.23-3.27-1.4-3.27-3.23ZM339,218.85h5.19v20.35h-5.19v-20.35Z"/>
          <path class="cls-1" d="M348.06,229.02c0-6.06,4.27-10.65,9.94-10.65,2.71,0,4.99,1.08,6.62,2.87v-2.39h5.19v13.61c0,1.08.6,1.72,1.72,1.72h.4v5.03h-1.48c-2.79,0-4.59-1-5.39-2.95-1.64,2.11-4.11,3.43-7.06,3.43-5.67,0-9.94-4.59-9.94-10.65ZM364.62,229.02c0-3.19-2.39-5.63-5.63-5.63s-5.59,2.43-5.59,5.63,2.39,5.63,5.59,5.63,5.63-2.43,5.63-5.63Z"/>
          <path class="cls-1" d="M376.75,233.01v-9.42h-3.23v-4.75h1.83c1.08,0,1.68-.56,1.68-1.64v-3.79h4.91v5.43h6.62v4.75h-6.62v8.9c0,1.2.8,1.96,2,1.96s2.04-.88,2.04-2.31h4.63c0,4.31-2.75,7.06-7.02,7.06s-6.82-2.47-6.82-6.18Z"/>
          <path class="cls-1" d="M391.87,229.02c0-6.06,4.71-10.65,10.93-10.65s10.93,4.59,10.93,10.73c0,.56-.04,1.2-.16,1.72h-16.16c.68,2.63,2.79,4.35,5.59,4.35,2.12,0,3.87-.96,4.79-2.27h5.63c-1.56,4.03-5.59,6.78-10.53,6.78-6.3,0-11.01-4.59-11.01-10.65ZM397.46,227.03h10.73c-.64-2.47-2.71-4.15-5.39-4.15s-4.63,1.64-5.35,4.15Z"/>
          <path class="cls-1" d="M152.23,264.19c0-8.1,6.22-14.24,14.52-14.24,6.46,0,11.85,3.79,13.45,9.14h-6.14c-1.48-2.35-4.15-3.83-7.3-3.83-5.07,0-8.9,3.83-8.9,8.94s3.83,8.94,8.9,8.94c3.95,0,6.98-2.31,8.02-5.67h-7.14v-4.99h13.09v15.48h-4.67v-4.15c-1.92,3.03-5.11,4.63-9.3,4.63-8.3,0-14.52-6.14-14.52-14.24Z"/>
          <path class="cls-1" d="M183.99,267.78c0-6.06,4.27-10.65,9.94-10.65,2.71,0,4.99,1.08,6.62,2.87v-2.39h5.19v13.61c0,1.08.6,1.72,1.72,1.72h.4v5.03h-1.48c-2.79,0-4.59-1-5.39-2.95-1.64,2.11-4.11,3.43-7.06,3.43-5.67,0-9.94-4.59-9.94-10.65ZM200.55,267.78c0-3.19-2.39-5.63-5.63-5.63s-5.59,2.43-5.59,5.63,2.39,5.63,5.59,5.63,5.63-2.43,5.63-5.63Z"/>
          <path class="cls-1" d="M210.97,257.61h5.19v2.11c1.52-1.72,3.55-2.59,6.03-2.59,2.91,0,5.23,1.32,6.46,3.51,1.6-2.27,3.99-3.51,6.98-3.51,4.47,0,7.46,2.99,7.46,7.58v6.5c0,1.08.64,1.72,1.72,1.72h.44v5.03h-1.48c-3.87,0-5.87-1.92-5.87-5.63v-6.06c0-2.47-1.56-4.11-3.99-4.11-2.55,0-4.27,1.68-4.27,4.19v11.61h-5.19v-11.69c0-2.47-1.6-4.11-3.99-4.11-2.55,0-4.31,1.68-4.31,4.19v11.61h-5.19v-20.35Z"/>
          <path class="cls-1" d="M246.95,267.78c0-6.06,4.71-10.65,10.93-10.65s10.93,4.59,10.93,10.73c0,.56-.04,1.2-.16,1.72h-16.16c.68,2.63,2.79,4.35,5.59,4.35,2.12,0,3.87-.96,4.79-2.27h5.63c-1.56,4.03-5.59,6.78-10.53,6.78-6.3,0-11.01-4.59-11.01-10.65ZM252.54,265.79h10.73c-.64-2.47-2.71-4.15-5.39-4.15s-4.63,1.64-5.35,4.15Z"/>
          <path class="cls-1" d="M279.63,268.98h5.67c0,2.47,1.64,4.15,3.87,4.15s3.87-1.68,3.87-3.87v-18.83h5.51v18.83c0,5.23-4.03,9.18-9.46,9.18s-9.46-3.95-9.46-9.46Z"/>
          <path class="cls-1" d="M302.14,267.78c0-6.06,4.27-10.65,9.94-10.65,2.71,0,4.99,1.08,6.62,2.87v-2.39h5.19v13.61c0,1.08.6,1.72,1.72,1.72h.4v5.03h-1.48c-2.79,0-4.59-1-5.39-2.95-1.64,2.11-4.11,3.43-7.06,3.43-5.67,0-9.94-4.59-9.94-10.65ZM318.69,267.78c0-3.19-2.39-5.63-5.63-5.63s-5.59,2.43-5.59,5.63,2.39,5.63,5.59,5.63,5.63-2.43,5.63-5.63Z"/>
          <path class="cls-1" d="M329.11,257.61h5.19v2.11c1.52-1.72,3.55-2.59,6.03-2.59,2.91,0,5.23,1.32,6.46,3.51,1.6-2.27,3.99-3.51,6.98-3.51,4.47,0,7.46,2.99,7.46,7.58v6.5c0,1.08.64,1.72,1.72,1.72h.44v5.03h-1.48c-3.87,0-5.87-1.92-5.87-5.63v-6.06c0-2.47-1.56-4.11-3.99-4.11-2.55,0-4.27,1.68-4.27,4.19v11.61h-5.19v-11.69c0-2.47-1.6-4.11-3.99-4.11-2.55,0-4.31,1.68-4.31,4.19v11.61h-5.19v-20.35Z"/>
        </g>
      </g>
    </g>
  </g>
</svg>