<?xml version="1.0" encoding="UTF-8"?>
<svg id="Layer_2" data-name="Layer 2" xmlns="http://www.w3.org/2000/svg" xmlns:xlink="http://www.w3.org/1999/xlink" viewBox="0 0 1161.07 680.64">
  <defs>
    <style>
      .cls-1 {
        fill: #8e9e18;
      }

      .cls-2 {
        fill: #bebb5f;
      }

      .cls-3 {
        fill: none;
      }

      .cls-4 {
        clip-path: url(#clippath-1);
      }

      .cls-5 {
        fill: #aa726b;
      }

      .cls-6 {
        fill: #7d8604;
      }

      .cls-7 {
        fill: #cd8740;
      }

      .cls-8 {
        fill: #577f9d;
      }

      .cls-9 {
        fill: #5d686e;
      }

      .cls-10 {
        fill: #688ab4;
      }

      .cls-11 {
        clip-path: url(#clippath);
      }
    </style>
    <clipPath id="clippath">
      <rect class="cls-3" width="1161.07" height="680.64"/>
    </clipPath>
    <clipPath id="clippath-1">
      <rect class="cls-3" x="-21.19" y="24.46" width="1201.59" height="679.93"/>
    </clipPath>
  </defs>
  <g id="website">
    <g class="cls-11">
      <g class="cls-4">
        <g>
          <path class="cls-6" d="M85.15,620.17l11.34-.36c31.73,26.64,67,41.54,109.03,41.52,49.17-.81,95.75.67,143.26,12.46,74.17-6.94,147.88-8.55,221.98-7l8.66-1.58c28.36-30.92,67.88-29.49,106.37-23.66,19.38,2.93,39.25,7.28,58.63,11.54,63.37,16.62,126.66,31.21,190.98,43.24,4.45.83,55.38,8.3,60.4,7.6,16.93-2.34,50.34-21.77,61.87-35.64l8.88.47c-.47-11.13,17.25-22.94,27.35-18.22,2-7.64,8.86-12.91,20.58-15.8,16.55-20.75,33.25-37.39,60.76-43.17l6.77,4.33c2.33,93.09,2.37,186.24,0,279.33H-21.19v-294.51c.55-1.44,1.16-2.84,1.99-4.08,5.35-7.97,90.42,29.45,102.43,35.76l1.92,7.79Z"/>
          <path class="cls-10" d="M1182.01,380.31l-7.27,2.56c-16.44-10.99-32.74-8.36-44.4,8.14-23.59,39.09-52.65,73.19-87.18,102.3l-10.03-.66c-5.4,6.81-28.04,23.02-36.27,19.29-32.1-63.73-69.51,6.92-72.78,46.74l-6.41,3.8c-5.32,7.79-13.95,13.77-25.88,17.94-28.71,21.91-59.84,39.2-93.41,51.89l-8.32-3.03-19.7,1.55c-73-9.7-146.62-13.89-220.86-12.58l-8.59-4.15-33.34-5.9-3.12-6.25-3.05-2.88c3.71-26.23-10.06-29.9-32.68-25.37-15.6-15.97-35.84-21.82-60.71-17.55-25.97-11.88-52.16-18.44-78.57-19.68-28.08-10.83-56.37-21.22-84.87-31.2l-1.42-6.55-4.14-.65c-6.29-12.24-20.88-17.86-28.18-4.01l-7.18-1.41c-14.35,8.43-18.95,7.62-30.5-3.8-15.82-32.11-39.38-46.18-74.17-34.38-3.09-1.03-34.8-46.15-36.89-53.17-10.72-39.11-31.17-86.98-78-88.1l-5.29-5.75v-133.6c2.35-1.47,4.53-2.2,6.53-2.32,13.64-.83,19.6,26.32,21.93,39.22,18.89,34.46,62,62.21,100.63,43.95l3.25,3.45c5.91,32.43,14.91,64.03,27.01,94.8,4.81.15,10.05,2.85,15.73,8.11,31.64,5.21,50.88,27.03,57.7,65.48,38.09,79.36,94.91,88.64,168,46.18l41.57-14.92c31.74-16.68,63.46-27.9,75.14,18.17l19.31,18.41c18.83,56.07,89.7,59.4,110.46,2.29l6.72-5.07c38.8-.26,66.98-1.59,100.75-23.62,21.1-7.38,58.32,1.01,77.8,11.4,47.06,48.19,95.84,23.56,112.61-36.38,18.25-.18,36.19,5.52,53.8,17.09,46.6,19.31,85.79-17.38,85.63-64.54,35.4-25.34,69.86-51.84,103.39-79.5l6.56-2.39,8.69-3.18c2.24,23.24,2.24,46.57,0,69.83Z"/>
          <path class="cls-8" d="M1183.07,276.53c-.19,9.33-1,19.11-4.4,27.73-1.35,3.13-3.16,6.27-5.35,9.4l-6.56,2.39c-33.53,27.66-67.99,54.16-103.39,79.5.16,47.16-39.03,83.85-85.63,64.54-17.61-11.57-35.55-17.27-53.8-17.09-16.77,59.94-65.55,84.57-112.61,36.38-19.48-10.39-56.7-18.78-77.8-11.4-33.77,22.03-61.95,23.36-100.75,23.62l-6.72,5.07c-20.76,57.11-91.63,53.78-110.46-2.29l-19.31-18.41c-11.68-46.07-43.4-34.85-75.14-18.17l-41.57,14.92c-73.09,42.46-129.91,33.18-168-46.18-6.82-38.45-26.06-60.27-57.7-65.48-5.68-5.26-10.92-7.96-15.73-8.11-12.1-30.77-21.1-62.37-27.01-94.8l-3.25-3.45c-38.63,18.26-81.74-9.49-100.63-43.95-2.33-12.9-8.29-40.05-21.93-39.22-1.87-3.85-3.45-7.84-4.42-12.21-2.88-11.39-2.69-28.37-.67-38.23,2.83-13.06,12.89-.05,17.45,5.1l.11.13c14.85,17.15,29.01,35.73,39.48,55.94,4.97,8.07,9.06,18.11,13.87,26.19,9.21,10.44,13.1-6.51,15.13-13.63,4.85-16.85,11.41-35.81,32.03-36.74,13.99-.98,26.04,9.38,31.91,21.28,10.88,22.31,7.26,47.94,10.27,72.04,1.19,17.52.04,34.84,1.6,52.12.91,16.68,3.7,26.92,21.93,29.88,14.04,1.72,27.42,8.3,37.18,18.64,15.96,16.1,29.39,34.1,46.33,49.25,8.41,7.41,18.45,14.58,27.49,21.9,12.87,10.16,22.76,24.95,32.97,37.98,9.62,12.3,23.13,10.55,35.31,2.8,24.85-12.84,45.62-34.91,73.48-41.1,15.93-4.1,31.93-.89,48.13-.34,12.69,1.18,25.94-1,38.32,1.95,30.39,6.88,41.08,74.66,77.77,55.26,11.41-6.34,22.57-15.56,34.97-19.62,22.16-6.04,46.27-4.31,68.81-7.59,12.81-1.12,25.08-4.05,36.58-10.13,29.68-16.7,70.36-35.15,98.48-11.07,9.32,8.16,16.27,21.46,23.45,31.12,16.32,22.95,20.12-31.14,38.99-41.79,18-13.15,45.13-4.24,62.52-18.87,6.31-4.3,10.88-9.79,16.22-14.85,5.83-5.23,12.13-9.64,18.35-14.26,11.47-7.53,25.28-12.26,34.87-22.38,5.79-5.59,8.77-13.02,14.95-18.39,11.24-10.08,30.11-8.15,39.61-20.29,10.57-18.56,14.71-40.91,23.73-60.43,5.7-11.13,12.4-22.09,20.23-31.87,13.31-19.31,29.68-35.85,43.02-55.05,6.91-8.55,19.96-37.02,25.63-12.13,4.39,41.05,1.86,83.09,1.66,124.39Z"/>
          <path class="cls-8" d="M1173.32,313.66c-19.2,27.49-67.5,54.67-90.58,75.97-26.2,26.48-14.55,62.29-60.95,79.07-41.79,13.8-66.54-21.15-89.42-12.42-8.51,4.05-12.75,13.92-17.42,21.8-13.67,26.29-43.68,41.28-71.95,30.78-13.82-4.65-24.81-14.6-37.41-21.45-11.28-6.12-24.23-9.36-37.33-11.54-27.85-6.41-46.92,9.24-72.05,17.76-8.44,2.79-17.24,4.37-26.07,4.93-9.84.8-20.1-.02-29.25,3.66-11.66,4.69-18.44,16.54-26.97,25.33-13.82,15.14-35.14,22.35-54.1,17.58-32.09-7.11-47.23-39.25-65.71-63.37-5.82-8.13-11.34-17.42-19.73-23.05-16.09-10.32-35.35.29-51.22,6.22-19.94,7.97-38.67,14.32-57.54,23.62-29.56,15.65-65.29,24.4-96.99,9.92-41.66-17.31-59.29-58.83-74.53-98.17-4.79-10.5-11.53-19.48-21.45-25.19-8.45-5.06-18.06-8.27-25.99-14.24-23.28-17.77-29.14-49.3-35.46-77.5-6.46-35.26-29.11-11.64-55.55-25.75-17.35-8.05-35.25-20.68-46.18-36.8-6.14-8.99-9.12-19.71-13.6-29.37-3.17-6.93-7.29-13.19-10.54-19.92,13.64-.83,19.6,26.32,21.93,39.22,18.89,34.46,62,62.21,100.63,43.95l3.25,3.45c5.91,32.43,14.91,64.03,27.01,94.8,4.81.15,10.05,2.85,15.73,8.11,31.64,5.21,50.88,27.03,57.7,65.48,38.09,79.36,94.91,88.64,168,46.18l41.57-14.92c31.74-16.68,63.46-27.9,75.14,18.17l19.31,18.41c18.83,56.07,89.7,59.4,110.46,2.29l6.72-5.07c38.8-.26,66.98-1.59,100.75-23.62,21.1-7.38,58.32,1.01,77.8,11.4,47.06,48.19,95.84,23.56,112.61-36.38,18.25-.18,36.19,5.52,53.8,17.09,46.6,19.31,85.79-17.38,85.63-64.54,35.4-25.34,69.86-51.84,103.39-79.5l6.56-2.39Z"/>
          <path class="cls-5" d="M-21.19,438c6.42-18.23,38.51-28.57,57.64-30.22,54.6-4.7,62.59,63.44,52.78,103.87l21.4,5.6c22.1-8.77,41.66-15.8,66.43-12.33l5.33,5.94,2.23,3.61c-10.19,19.76.53,25.19,18.91,28.8,7.86,32.71,35.85,23.06,30.27-10.07l6.32-4.12c10.02-5.68,39.78-8.29,51.82-6.49,24.05,3.59,42.4,13.46,39.74,40.75-.88,9.04-4.95,22.1-15.61,20.39,7.14,8.29-13.68,22.45-21.33,26.53-21.73,11.6-49.34,6.65-66.12-11.55-58.58,4.19-124.51,2.88-181.9-12.06-17.95-14.45-39.82-23.08-65.62-25.88l-2.3-7.41v-42.51c1.19-11.03,24.19-18.53,28.87-7.96-8.92,50.66,51.57,26.57,39.71-4.34-2.05-5.34-34.18-37.86-39.56-41.4-1.69-1.11-5-.74-6.73.46-9.37,10.57-16.8,13.13-22.29,7.7v-27.33Z"/>
          <path class="cls-9" d="M-21.19,307.45c36.72-3.72,62.69,25.2,76.49,55.64,6.52,14.38,10.39,34.12,17.07,46.7,6.9,12.99,23.98,24.57,28.2,40.23,22.07-10.99,43.2-6.26,60.66,10.65,14.74,14.28,13.71,37.69,42.43,31.99,2.4,9.58-12.57,21.42-21.27,18.22-11.44.57-23.2-1.04-34.62.33-13.11,1.57-28.21,11.55-36.77,12.08-10.16.64-18.84-6.52-28.89-6.35,18.03-88.94-20.87-134.59-103.29-78.92v-130.55Z"/>
          <path class="cls-2" d="M316.07,583.74l5.74-4.95,143.09,31.62c12.77.94,23.16-5.59,33.42-12.49l6.13,4.05c6.12-.84,29.87,7.94,36.46,12.14-14.35,6.3-30.53,8.9-48.53,7.8-95.19,13.97-186.5,15.11-279.5-6.89-39.46-6.14-80.43-7.58-118.19,7.11l-9.54-1.95c-20.6-10.8-55.83-24.66-78.25-32.62-9.09-3.23-18.11-7.33-28.09-6.85v-27.33c15.25,6.6,37.64,8.17,51.72,13.6,8.03,3.1,11.71,10.5,19.05,14.36,20.65,10.84,135.22,15.06,164.67,14.54,5.03-.09,10.54-3.5,15.19-3.06,8.79.83,12.86,20.02,33.5,21.47,18.44,1.3,42.34-16.97,53.13-30.55Z"/>
          <path class="cls-7" d="M-21.19,465.33c12.56-2.24,17.9-20.73,32.55-12.94,18.8,23.91,63.2,41.07,34.19,75.07-21.7,25.44-53.29,4.8-42.44-25.68l-24.29,9.09v-45.54Z"/>
          <path class="cls-1" d="M540.91,614.1c23.02.4,45.52-.2,68.24-.13,60.86.21,121.63-.46,180.91,15.31.73,6.87,7.92,9.94,21.57,9.21,57.03-4.79,121.57-7.48,179.03.89,24.49,3.57,62.36,9.36,75.89,29.37-7.3,5.23-15.75,16.44-23.23,20.82-3.54,2.07-42.6,19.93-45.05,20.26-7.88,1.07-21.93-4.22-30.51-4.61-81.78-3.64-162.99-34.83-244.44-50.25-41.71-7.9-87.07-21.01-125.7,2.14-6.86,4.11-10.68,13.06-18.81,14.61-29.86,5.69-87.54-1.25-121.59-.06-33.45,1.17-76.62,10.06-108.82,8.19-17.37-1.01-41.39-9.7-61.24-11.07-51.31-3.54-109.7,6.35-157.37-18.84-15.53-8.21-29.15-21.64-44.65-29.77,75.46-36.51,164.48,1.64,244.46,6.2,73.41,4.18,141.69-13.48,211.3-12.27Z"/>
          <path class="cls-7" d="M1182.01,595.88c-13.53,3.99-25.64,7.59-37.43,15.73-11.35,7.84-19,22.45-26.61,28.06-5.13,3.78-16.99,6.51-24.07,10.86-7.39,2.1-18.91-3.63-15.19-12.14-7.45-.28-13.62-4.91-18.54-13.88-12.68,1.5-22.7-.95-30.08-7.37-7.8,4.15-12.34-2.61-6.08-9.11-20.74-9.74-2.24-38.07,18.66-36.85-.49-12.36,3.52-26.07,15.33-31.43.11-18.61,11.85-24.55,28.72-26.94,5.29-20.37,17.39-28.07,34.58-36.93l9.06-22.69c-2.9-13.6,24.3-41.14,36.13-48.2,5.48-3.27,10.96-6.01,15.52-.38-.03,64.07.04,127.46,0,191.28Z"/>
          <path class="cls-2" d="M917.67,562.49l6.03,4.02,4.09,48.97c8.42,16.96,30.49,13.32,32.01-5.77-1.56-34.11,8.56-28.91,36.29-14.54,12.19,1.86,21.5,6.15,27.93,12.86,1.05,2.69,4.31,6.26,6.08,9.11,8.24,4.56,16.03,9.83,23.37,15.82,9.47.5,17.89,2.31,25.24,5.44,4.21,4.1,12.46,5.68,15.19,12.14-9.87,6.06-17.96,11.49-27.35,18.22-67.1-34.67-152.19-27.9-226.49-27.45-7.95.05-15.52,3.38-24.13,3.4-15.56.04-31.02-5.63-47.13-3.29-1.59-8.58,15.38-9.52,21.25-12.13,14.52-6.46,32.29-12.58,45.7-19.61,27.21-14.26,50.88-38.97,81.91-47.19Z"/>
          <path class="cls-5" d="M1130.36,453.19c-2.63,5.58-1.8,24.44-3.44,26.92-.91,1.37-10.73,2.61-14.55,5.2-15.76,10.67-20.31,32.94-21.91,34.27-2.47,2.04-15.34-1.82-22.3,6.55-4.92,5.93-2.89,12.82-5.54,17.28-1,1.69-5.76,2.65-7.74,5.75-6.64,10.39-7.88,16.67-3.52,28.49-21.85-2.93-35.86,8.55-27.34,30.38-20.62-2.04-40.35-10.03-57.7-21.25-.28,11.55,1.8,26.09-4.76,36.26-10.43,16.15-36.22,9.93-40.19-8.07-1.89-8.56-4.11-42.82-3.69-52.48.87-19.79,15.43-64.42,32.42-75.39,22.57-14.58,42.79-3.35,49.66,20.74,3.87,2.74,18.58-17.43,33.38-15.17,8.5-3.52,16.02-.21,22.57,9.91,14.17-14.3,32.17-24.59,54-30.85,6.34-10.84,13.23-17.02,20.66-18.53Z"/>
          <path class="cls-9" d="M504.45,601.96c-6.18.85-17.87,15.84-40.29,14.46l-148.1-32.67c9.72-12.23,13.26-25.92,5.69-40.6-13.46-26.1-58.52-7.69-81.65-14.05-8.84-2.83-5.23-28.29,3.04-30.36l90.29,32.74c26.23-6.13,55.55,15.57,75.49,18.69,12.17,1.9,26.68-1.88,38.67.83,10.47,2.36,17.03,15.93,22.25,16.88s11.94-4.33,22.6-1c15.05,4.7,19.41,21.72,12,35.1Z"/>
          <path class="cls-9" d="M1182.01,380.32c0,8.08,0,16.21,0,24.29-3.46,2.68-10.02,3.54-12.94,5.96-16.46,13.66-25.78,25.36-38.71,42.62-4.9,6.54-10.53,17.62-13.96,20.96-14,13.63-62.67,12.72-55.95,48.85l-10.5-18.3c-2.78-3.3-13.43-11.53-16.82-12.05,30.45-19.04,48.15-43.98,69.32-71.91,21.25-28.04,35.02-70.51,79.56-40.43Z"/>
          <path class="cls-7" d="M243.15,498.73c.82,8.58-2.22,20.75-3.04,30.36-1.46,17.08,3.6,44.55-25.1,38.95-16.93-3.3-12.65-18.19-14.76-20.37-1.6-1.66-15.08,1.19-22.23-9.67-7.05-10.7-3.34-18.35,4.36-27.13,4.42-5.04,15.25-12.99,21.27-18.22,8.52-7.41,6.15-14.18,22.51-12.05,10.25,1.33,16.03,8.1,16.98,18.12Z"/>
          <path class="cls-5" d="M1030.09,617.14c10.99,4.28,22.19-2.4,32.71,2,4.11,1.72,11.51,14.98,15.91,19.25-25.13,6.73-35.98-.92-48.61-21.25Z"/>
          <path class="cls-7" d="M986.69,554.02c37.99-11.1,43.23,43.57,5.7,38.77-23.01-2.94-22.11-33.97-5.7-38.77Z"/>
        </g>
      </g>
    </g>
  </g>
</svg>