<?xml version="1.0" encoding="UTF-8"?>
<svg id="Layer_2" data-name="Layer 2" xmlns="http://www.w3.org/2000/svg" xmlns:xlink="http://www.w3.org/1999/xlink" viewBox="0 0 287.37 127.12">
  <defs>
    <style>
      .cls-1 {
        fill: #f1f1f2;
      }

      .cls-2 {
        fill: none;
      }

      .cls-3 {
        clip-path: url(#clippath);
      }
    </style>
    <clipPath id="clippath">
      <rect class="cls-2" width="287.37" height="127.12"/>
    </clipPath>
  </defs>
  <g id="_2_26_25" data-name="2 26 25">
    <g class="cls-3">
      <path class="cls-1" d="M265.48,53.05c-10-1.71-20.28-3.41-29.88-6.8-8.89-3.14-12.35-7.39-15.86-16.2-5.95-14.92-22.05-29.37-38.5-21.64-18.48,8.69-31.7,29.48-43.89,45-3.42,4.33-6.8,8.62-10.13,12.66-14.68,17.77-28.47,30.95-40,24.44-9.96-5.62-21.71-4.49-32.08-.67-10.45,3.84-19.96,10.09-28.63,16.99-3.25,2.59-28.52,21.15-30.58,22.8,0,0-.01.01-.02.02-1.14.91-.64,2.75.8,2.95,5.65.8,20.27.96,39.52.96s40.05.02,60.08,0c43-.04,40.26,0,83.22,0,8.45.03,45.69-.13,54.13,0,5.63.08,26.79,0,32.44,0,37.12,0,17.26-10.59,3.26-33.58-13-21.33,31.27-40.93-3.88-46.93ZM166.32,94.04c-.92,0-1.67.75-1.67,1.67v6.11c0,.19-.44,1.98-.55,2.28-1.49,4.03-7.39,4.84-10.03,1.52-.32-.4-1.3-2.32-1.3-2.67v-7.24c0-.92-.75-1.67-1.67-1.67h-7.51c-.16,0-1.27-.57-1.54-.72-3.82-2.11-3.78-8.1,0-10.15.23-.12,1.71-.73,1.81-.73h7.23c.92,0,1.67-.75,1.67-1.67v-7.24c0-.13.64-1.47.8-1.75,2.39-4.5,9.15-3.7,10.66,1.04.07.21.42,1.74.42,1.84v6.11c0,.92.75,1.67,1.67,1.67h7.23c.13,0,1.69.73,1.94.9,3.43,2.24,3.54,7.33.17,9.7-.23.16-1.71,1-1.82,1h-7.52ZM217.97,107.6c-8.46-1.17-8.62-14.9-.24-16.33,13.39-2.26,13.71,18.19.24,16.33ZM235.91,85.14c-11.55,3.12-14.47-14.58-4.05-16.22,11.3-1.76,13.58,13.65,4.05,16.22Z"/>
    </g>
  </g>
</svg>