<?xml version="1.0" encoding="UTF-8"?>
<svg id="Layer_2" data-name="Layer 2" xmlns="http://www.w3.org/2000/svg" xmlns:xlink="http://www.w3.org/1999/xlink" viewBox="0 0 1206.24 932.1">
  <defs>
    <style>
      .cls-1 {
        fill: #8cbade;
      }

      .cls-2 {
        fill: #8e9e18;
      }

      .cls-3 {
        fill: #8ab9de;
      }

      .cls-4 {
        fill: #a7c2d3;
      }

      .cls-5 {
        fill: #b8c7cd;
      }

      .cls-6 {
        fill: #bebb5f;
      }

      .cls-7 {
        fill: #82b7e1;
      }

      .cls-8 {
        fill: #b1c5d0;
      }

      .cls-9 {
        fill: #9abfd8;
      }

      .cls-10 {
        fill: #aec4d1;
      }

      .cls-11 {
        fill: none;
      }

      .cls-12 {
        fill: #bbc8cc;
      }

      .cls-13 {
        fill: #abc3d2;
      }

      .cls-14 {
        fill: #85b8e0;
      }

      .cls-15 {
        fill: #75b3e6;
      }

      .cls-16 {
        fill: #87b9df;
      }

      .cls-17 {
        fill: #93bcdb;
      }

      .cls-18 {
        fill: #9abed9;
      }

      .cls-19 {
        fill: #7bb5e4;
      }

      .cls-20 {
        fill: #7db6e3;
      }

      .cls-21 {
        fill: #aa726b;
      }

      .cls-22 {
        fill: #9dbfd7;
      }

      .cls-23 {
        fill: #90bcdc;
      }

      .cls-24 {
        fill: #b4c6cf;
      }

      .cls-25 {
        fill: #7d8604;
      }

      .cls-26 {
        fill: #96bdda;
      }

      .cls-27 {
        fill: #cd8740;
      }

      .cls-28 {
        fill: #a4c2d5;
      }

      .cls-29 {
        fill: #a0c0d6;
      }

      .cls-30 {
        fill: #78b4e5;
      }

      .cls-31 {
        fill: #577f9d;
      }

      .cls-32 {
        fill: #5d686e;
      }

      .cls-33 {
        fill: #fefefe;
      }

      .cls-34 {
        fill: #b6c7ce;
      }

      .cls-35 {
        fill: #688ab4;
      }

      .cls-36 {
        fill: #bec9cb;
      }

      .cls-37 {
        clip-path: url(#clippath);
      }
    </style>
    <clipPath id="clippath">
      <rect class="cls-11" x="0" y="81.35" width="1201.59" height="679.93"/>
    </clipPath>
  </defs>
  <g id="website">
    <g class="cls-37">
      <g>
        <path class="cls-25" d="M106.34,677.06l11.34-.36c31.73,26.64,67,41.54,109.03,41.52,49.17-.81,95.75.67,143.26,12.46,74.17-6.94,147.88-8.55,221.98-7l8.66-1.58c28.36-30.92,67.88-29.49,106.37-23.66,19.38,2.93,39.25,7.28,58.63,11.54,63.37,16.62,126.66,31.21,190.98,43.24,4.45.83,55.38,8.3,60.4,7.6,16.93-2.34,50.34-21.77,61.87-35.64l8.88.47c-.47-11.13,17.25-22.94,27.35-18.22,2-7.64,8.86-12.91,20.58-15.8,16.55-20.75,33.25-37.39,60.76-43.17l6.77,4.33c2.33,93.09,2.37,186.24,0,279.33H0v-294.51c.55-1.44,1.16-2.84,1.99-4.08,5.35-7.97,90.42,29.45,102.43,35.76l1.92,7.79Z"/>
        <path class="cls-35" d="M0,230.75c18.34-11.45,25.79,22.1,28.46,36.89,18.88,34.46,61.99,62.21,100.63,43.96l3.25,3.44c5.91,32.43,14.91,64.04,27.01,94.8,4.81.14,10.05,2.85,15.73,8.11,31.64,5.2,50.87,27.03,57.7,65.48,38.08,79.36,94.9,88.64,167.99,46.17l41.58-14.92c31.73-16.68,63.46-27.9,75.14,18.18l19.31,18.4c18.83,56.07,89.7,59.41,110.46,2.29l6.72-5.07c38.8-.26,66.98-1.59,100.75-23.62,21.1-7.38,58.31,1.01,77.8,11.4,47.06,48.19,95.84,23.56,112.61-36.39,18.26-.17,36.19,5.52,53.81,17.09,46.6,19.31,85.79-17.37,85.63-64.54,35.4-25.34,69.86-51.84,103.39-79.49l15.25-5.57c2.24,23.24,2.24,46.57,0,69.83l-7.27,2.56c-16.44-10.99-32.73-8.36-44.4,8.14-23.59,39.09-52.65,73.19-87.18,102.3l-10.03-.66c-5.4,6.81-28.04,23.02-36.27,19.29-32.1-63.74-69.52,6.91-72.78,46.74l-6.41,3.8c-5.32,7.79-13.95,13.77-25.88,17.94-28.71,21.9-59.84,39.2-93.41,51.88l-8.32-3.03-19.7,1.56c-73-9.7-146.62-13.89-220.86-12.58l-8.59-4.15-33.33-5.9-3.13-6.25-3.04-2.88c3.71-26.24-10.06-29.9-32.69-25.38-15.6-15.96-35.83-21.81-60.71-17.55-25.97-11.88-52.16-18.44-78.57-19.68-28.08-10.82-56.37-21.22-84.87-31.2l-1.42-6.55-4.14-.66c-6.29-12.24-20.88-17.85-28.18-4.01l-7.19-1.41c-14.34,8.43-18.94,7.62-30.49-3.8-15.82-32.12-39.39-46.19-74.18-34.38-3.09-1.03-34.8-46.15-36.89-53.17-10.72-39.11-31.17-86.97-77.99-88.1l-5.29-5.76v-133.59Z"/>
        <path class="cls-31" d="M15.19,191.28c14.02,2.49,19.08,7.55,15.19,15.18,10.56,1.46,21.15,14.89,15.19,24.29,10.01-1.55,26.41,23.62,18.23,30.36,7.46,2.49,12.15,10.49,14.07,24.01,1.5-12.77,5.93-20.77,13.28-24.01-8.61-5.64-2.5-31.88,9.12-30.36-7.16-18.11,43.29-21.39,39.5-3.04,10.39,1.98,20.06,12.54,12.15,21.25,9.54-.73,11.23,14.3,3.04,18.22,9.65.16,8.71,19.74,0,21.25,9.57,3.14,11.78,22.31,3.04,27.33,9.1,3.85,8.64,17.14,0,21.25,8.93,4.83,8.62,16.22,0,21.25,8.72,1.33,10.7,13.45,3.04,18.22,6.08,3.27,8.11,9.4,6.1,18.38,10.84-6.05,31.72-11.62,36.43,2.88,8.32-1.86,23.98,6.28,18.23,15.18,8.53,2.14,18.04,5.58,12.15,15.18,12.11,1.66,17.17,6.72,15.19,15.18,11.99,1.62,17.05,6.68,15.19,15.18,32.24,13.9,56.77,38.79,73.6,74.66,30.65-15.1,59.45-33.1,86.39-54,9.72-3.11,16.26-2.07,25.71-.16,13.99-9.2,25.43-4.77,37.62,5.28,42.62-21.3,56.25,2.92,74.66,37.47l25.09,22.91,39.51-26.31c12.73-8.68,27.46-10.42,44.19-5.24,19.54-6.62,37.7-6.38,58.07-5.89,27.92-22.51,89.74-51.93,117.26-17.47l26.91,42.37,17.21-41.79c5.51-11.72,11.59-22.77,26.11-23.03,20.32,2.85,37.84.92,52.55-5.78-4.81-11.86,8.69-15.7,18.23-18.22-3.36-7.78,3.73-12.84,21.27-15.18-1.17-2.6-1-4.99.74-7.15l29.65-8.03c-5.92-6.86.55-17.63,9.12-18.22-6.89-12.27,11.11-14.67,21.7-14.94,8.82,1.03,16.78-.06,23.88-3.28-7.54-5.1-2.8-17.52,6.08-18.22-7.15-7.51-.5-20.08,9.12-21.25-7.73-5.05-3.48-20.9,6.08-21.25-8.12-8.67,4.87-22.77,15.19-24.29-4.56-11.54,7.13-21.9,18.23-24.29-5.85-10.52,6.12-15.87,15.19-18.22-5.52-10.75,8.45-18.73,18.23-21.25-5.74-8.43,2.53-19.91,12.15-21.25-6.54-7.21.83-14.02,9.12-9.11,2.38,56.64,2.35,113.38,0,170.02-35.14,32.58-74.77,60.3-113.94,88.05,1.69,41.42-30.12,76.62-72.57,72.56-26-2.48-42.59-22.26-68.61-23.98-8.25,37.6-34.38,70.13-76.87,63.02-23.46-3.93-33.35-25.2-53.79-31.24-5.76-1.7-45.12-9.4-49.04-8.82-14.72,2.18-39.56,19.81-57.26,24.24s-25.92,1.12-41.15,1.37c-22.47.37-16.13,4.54-23.26,16.2-27.25,44.56-80.06,41.89-109.03.62-3.26-4.64-3.45-11.15-5.84-14.65-3.68-5.4-14.02-9.38-20.32-19.94-5.95-9.97-6.01-25.41-17.89-27.72-22.18-4.31-35.15,8.84-52.29,14.4-33.25,10.78-40.84,14.29-70.97,29.28-38.74,19.27-85.8,10.78-115.23-20.88-25.52-27.46-30.33-52.12-43.39-84.16-8.52-20.9-23.65-13.48-40.73-23.06-31.04-17.41-37.47-75.06-43.45-106.9-7.5,3.72-17.68,8.56-26.07,8.81-23.61.71-69.08-29.93-77.81-52.23-7.01-17.91-1.42-33.09-23.7-41.6v-60.72c8.34-1.02,20.07,13.76,15.19,21.25Z"/>
        <path class="cls-20" d="M1203.21,51.61c2.36,7.89,2.32,16.39,0,24.29l-2.91,6.07H3.8l-3.8-6.07v-24.29l2.91-6.07h1196.5l3.8,6.07Z"/>
        <path class="cls-7" d="M1203.21,75.9c2.26,8.02,2.23,16.21,0,24.29l-2.91,6.07H3.8l-3.8-6.07v-24.29h1203.21Z"/>
        <path class="cls-21" d="M0,494.89c6.42-18.23,38.51-28.57,57.64-30.22,54.6-4.7,62.59,63.44,52.78,103.87l21.4,5.6c22.1-8.77,41.66-15.8,66.43-12.33l5.33,5.94,2.23,3.61c-10.19,19.76.53,25.19,18.91,28.8,7.86,32.71,35.85,23.06,30.27-10.07l6.32-4.12c10.02-5.68,39.78-8.29,51.82-6.49,24.05,3.59,42.4,13.46,39.74,40.75-.88,9.04-4.95,22.1-15.61,20.39,7.14,8.29-13.68,22.45-21.33,26.53-21.73,11.6-49.34,6.65-66.12-11.55-58.58,4.19-124.51,2.88-181.9-12.06-17.95-14.45-39.82-23.08-65.62-25.88l-2.3-7.41v-42.51c1.19-11.03,24.19-18.53,28.87-7.96-8.92,50.66,51.57,26.57,39.71-4.34-2.05-5.34-34.18-37.86-39.56-41.4-1.69-1.11-5-.74-6.73.46-9.37,10.57-16.8,13.13-22.29,7.7v-27.33Z"/>
        <path class="cls-1" d="M1203.21,145.74c2.24,7.02,2.24,14.18,0,21.25l-2.91,6.07c-400.01,1.34-799.39.52-1198.15-2.44l-2.15-3.63v-21.25l2.91-6.07h1196.5l3.8,6.07Z"/>
        <path class="cls-23" d="M1203.21,166.99c2.24,7.02,2.24,14.18,0,21.25l-.94,4.05c-390.59,3.46-781.94,5.14-1174.03,5.02l-13.04-6.04c-5.78-7-11.38-12.68-15.19-21.25v-3.04h1203.21Z"/>
        <path class="cls-30" d="M1203.21,15.18c2.62,5.29,2.38,13.11,0,18.22l-2.91,6.07H3.8l-3.8-6.07V15.18l2.91-6.07h1196.5l3.8,6.07Z"/>
        <path class="cls-19" d="M1203.21,33.4c2.37,5.8,2.33,12.41,0,18.22H0v-18.22h1203.21Z"/>
        <path class="cls-3" d="M1203.21,130.55c2.23,4.97,2.24,10.13,0,15.18H0v-15.18l2.91-6.07h1196.5l3.8,6.07Z"/>
        <path class="cls-16" d="M1203.21,115.37c2.23,4.97,2.24,10.13,0,15.18H0v-15.18l2.91-6.07h1196.5l3.8,6.07Z"/>
        <path class="cls-14" d="M1203.21,100.19c2.23,4.97,2.24,10.13,0,15.18H0v-15.18h1203.21Z"/>
        <path class="cls-32" d="M0,364.34c36.72-3.72,62.69,25.2,76.49,55.64,6.52,14.38,10.39,34.12,17.07,46.7,6.9,12.99,23.98,24.57,28.2,40.23,22.07-10.99,43.2-6.26,60.66,10.65,14.74,14.28,13.71,37.69,42.43,31.99,2.4,9.58-12.57,21.42-21.27,18.22-11.44.57-23.2-1.04-34.62.33-13.11,1.57-28.21,11.55-36.77,12.08-10.16.64-18.84-6.52-28.89-6.35,18.03-88.94-20.87-134.59-103.29-78.92v-130.55Z"/>
        <path class="cls-15" d="M0,3.04C399.87,1.18,800.56.67,1202.05,1.49c4.29,1.37,3.7,10.22,1.16,13.69H0V3.04Z"/>
        <path class="cls-6" d="M337.26,640.63l5.74-4.95,143.09,31.62c12.77.94,23.16-5.59,33.42-12.49l6.13,4.05c6.12-.84,29.87,7.94,36.46,12.14-14.35,6.3-30.53,8.9-48.53,7.8-95.19,13.97-186.5,15.11-279.5-6.89-39.46-6.14-80.43-7.58-118.19,7.11l-9.54-1.95c-20.6-10.8-55.83-24.66-78.25-32.62-9.09-3.23-18.11-7.33-28.09-6.85v-27.33c15.25,6.6,37.64,8.17,51.72,13.6,8.03,3.1,11.71,10.5,19.05,14.36,20.65,10.84,135.22,15.06,164.67,14.54,5.03-.09,10.54-3.5,15.19-3.06,8.79.83,12.86,20.02,33.5,21.47,18.44,1.3,42.34-16.97,53.13-30.55Z"/>
        <path class="cls-33" d="M0,3.04V0h1206.24v932.1h-3.04c.04-93.06-.06-186.27,0-279.33-8.81-63.4-8.84-127.87,0-191.28-5.96-7.97-5.96-16.32,0-24.29-.01-23.24.01-46.6,0-69.83-.03-56.62.07-113.4,0-170.02-5.88-2.78-5.88-6.33,0-9.11,0-7.08.01-14.18,0-21.25s.02-14.18,0-21.25c-.01-5.06.01-10.12,0-15.18s.02-10.12,0-15.18c-.02-5.06.03-10.12,0-15.18-.04-8.08.07-16.21,0-24.29s.06-16.21,0-24.29c-.04-6.07.1-12.15,0-18.22-.1-6.03.39-12.21,0-18.22-.22-3.48,1.63-11.67-1.77-12.2L0,3.04Z"/>
        <path class="cls-27" d="M0,522.22c12.56-2.24,17.9-20.73,32.55-12.94,18.8,23.91,63.2,41.07,34.19,75.07-21.7,25.44-53.29,4.8-42.44-25.68l-24.29,9.09v-45.54Z"/>
        <path class="cls-2" d="M562.1,670.99c23.02.4,45.52-.2,68.24-.13,60.86.21,121.63-.46,180.91,15.31.73,6.87,7.92,9.94,21.57,9.21,57.03-4.79,121.57-7.48,179.03.89,24.49,3.57,62.36,9.36,75.89,29.37-7.3,5.23-15.75,16.44-23.23,20.82-3.54,2.07-42.6,19.93-45.05,20.26-7.88,1.07-21.93-4.22-30.51-4.61-81.78-3.64-162.99-34.83-244.44-50.25-41.71-7.9-87.07-21.01-125.7,2.14-6.86,4.11-10.68,13.06-18.81,14.61-29.86,5.69-87.54-1.25-121.59-.06-33.45,1.17-76.62,10.06-108.82,8.19-17.37-1.01-41.39-9.7-61.24-11.07-51.31-3.54-109.7,6.35-157.37-18.84-15.53-8.21-29.15-21.64-44.65-29.77,75.46-36.51,164.48,1.64,244.46,6.2,73.41,4.18,141.69-13.48,211.3-12.27Z"/>
        <path class="cls-27" d="M1203.21,652.77c-13.53,3.99-25.64,7.59-37.43,15.73-11.35,7.84-19,22.45-26.61,28.06-5.13,3.78-16.99,6.51-24.07,10.86-7.39,2.1-18.91-3.63-15.19-12.14-7.45-.28-13.62-4.91-18.54-13.88-12.68,1.5-22.7-.95-30.08-7.37-7.8,4.15-12.34-2.61-6.08-9.11-20.74-9.74-2.24-38.07,18.66-36.85-.49-12.36,3.52-26.07,15.33-31.43.11-18.61,11.85-24.55,28.72-26.94,5.29-20.37,17.39-28.07,34.58-36.93l9.06-22.69c-2.9-13.6,24.3-41.14,36.13-48.2,5.48-3.27,10.96-6.01,15.52-.38-.03,64.07.04,127.46,0,191.28Z"/>
        <path class="cls-6" d="M938.87,619.37l6.03,4.02,4.09,48.97c8.42,16.96,30.49,13.32,32.01-5.77-1.56-34.11,8.56-28.91,36.29-14.54,12.19,1.86,21.5,6.15,27.93,12.86,1.05,2.69,4.31,6.26,6.08,9.11,8.24,4.56,16.03,9.83,23.37,15.82,9.47.5,17.89,2.31,25.24,5.44,4.21,4.1,12.46,5.68,15.19,12.14-9.87,6.06-17.96,11.49-27.35,18.22-67.1-34.67-152.19-27.9-226.49-27.45-7.95.05-15.52,3.38-24.13,3.4-15.56.04-31.02-5.63-47.13-3.29-1.59-8.58,15.38-9.52,21.25-12.13,14.52-6.46,32.29-12.58,45.7-19.61,27.21-14.26,50.88-38.97,81.91-47.19Z"/>
        <path class="cls-21" d="M1151.55,510.07c-2.63,5.58-1.8,24.44-3.44,26.92-.91,1.37-10.73,2.61-14.55,5.2-15.76,10.67-20.31,32.94-21.91,34.27-2.47,2.04-15.34-1.82-22.3,6.55-4.92,5.93-2.89,12.82-5.54,17.28-1,1.69-5.76,2.65-7.74,5.75-6.64,10.39-7.88,16.67-3.52,28.49-21.85-2.93-35.86,8.55-27.34,30.38-20.62-2.04-40.35-10.03-57.7-21.25-.28,11.55,1.8,26.09-4.76,36.26-10.43,16.15-36.22,9.93-40.19-8.07-1.89-8.56-4.11-42.82-3.69-52.48.87-19.79,15.43-64.42,32.42-75.39,22.57-14.58,42.79-3.35,49.66,20.74,3.87,2.74,18.58-17.43,33.38-15.17,8.5-3.52,16.02-.21,22.57,9.91,14.17-14.3,32.17-24.59,54-30.85,6.34-10.84,13.23-17.02,20.66-18.53Z"/>
        <path class="cls-32" d="M525.64,658.84c-6.18.85-17.87,15.84-40.29,14.46l-148.1-32.67c9.72-12.23,13.26-25.92,5.69-40.6-13.46-26.1-58.52-7.69-81.65-14.05-8.84-2.83-5.23-28.29,3.04-30.36l90.29,32.74c26.23-6.13,55.55,15.57,75.49,18.69,12.17,1.9,26.68-1.88,38.67.83,10.47,2.36,17.03,15.93,22.25,16.88s11.94-4.33,22.6-1c15.05,4.7,19.41,21.72,12,35.1Z"/>
        <path class="cls-32" d="M1203.21,437.21c0,8.08,0,16.21,0,24.29-3.46,2.68-10.02,3.54-12.94,5.96-16.46,13.66-25.78,25.36-38.71,42.62-4.9,6.54-10.53,17.62-13.96,20.96-14,13.63-62.67,12.72-55.95,48.85l-10.5-18.3c-2.78-3.3-13.43-11.53-16.82-12.05,30.45-19.04,48.15-43.98,69.32-71.91,21.25-28.04,35.02-70.51,79.56-40.43Z"/>
        <path class="cls-27" d="M264.34,555.62c.82,8.58-2.22,20.75-3.04,30.36-1.46,17.08,3.6,44.55-25.1,38.95-16.93-3.3-12.65-18.19-14.76-20.37-1.6-1.66-15.08,1.19-22.23-9.67-7.05-10.7-3.34-18.35,4.36-27.13,4.42-5.04,15.25-12.99,21.27-18.22,8.52-7.41,6.15-14.18,22.51-12.05,10.25,1.33,16.03,8.1,16.98,18.12Z"/>
        <path class="cls-36" d="M969.25,461.49c-.69.71-.63,5.36-2.77,7.74-10.13,11.27-47.38-1.77-59.75,7.2-9.24,6.7-27.95,56.76-31.71,70.04l-33.39-53.1c-8.66-9.76-11.88-14.38-25.86-13.95-7.51.23-40.01,7.5-47.88,10.08-13.65,4.47-29.97,22.15-37.22,23.53-9.69,1.85-22.78-.96-33.33.09-9.31.93-18.89,6.03-27.37,6.04-8.95,0-15.2-4.93-26.69-2.41s-50.51,35.62-58.44,34.96c-8.98-8.84-21.11-18.29-28.74-28.07-15.62-20.01-13.38-43.37-44.08-40.99-8.57.66-21.24,8.3-24.35,8.1-3.71-.23-13.11-10.61-21.53-11.06-7.06-.37-10.75,4.72-15.33,5.21-6.79.72-12.16-4.17-22.58-.86-9.14,2.9-40.57,29.98-53.6,37.55-12.34,7.18-25.8,12.9-38.7,19-3.19-.21-29.7-47.09-35.09-53.38-10.14-11.84-24.28-12.87-32.22-19.54-3.81-3.21-3.58-8.53-4.3-9.25l2.16-6.06c232.97,1,465.97,2.01,699.02,3.01l3.73,6.09Z"/>
        <path class="cls-28" d="M1130.28,291.47c-5.01,7.19-11.74,16.42-15.19,24.29l-4.76,6.07H161.77l-3.77-6.07c-.63-10.03-2.19-18.22-3.04-27.33l2.92-6.06c322.83,1,645.71,2.01,968.65,3.02l3.76,6.08Z"/>
        <path class="cls-26" d="M1194.09,206.46c-4.1,6.6-6.95,14.03-12.15,21.25l-11.4,6.07H148.2l-8.43-6.07c-11.43-8.71-29.87-8.29-39.5,3.04-6.87,4.18-16.01,4.96-27.42,2.33-11.33,2.61-20.42,1.83-27.27-2.33-4.4-6.89-10.85-18.55-15.19-24.29l2.91-6.07h1157l3.79,6.07Z"/>
        <path class="cls-18" d="M1181.94,227.71c-5.75,7.97-13.06,14.56-18.23,21.25l-11.36,6.07H155.7l-3.78-6.07c-1.78-6.07-8.69-15.41-12.15-21.25h1042.17Z"/>
        <path class="cls-17" d="M1203.21,188.24c0,3.04,0,6.07,0,9.11-3.41,2.14-7.03,5.75-9.12,9.11H30.38c-2.71-3.58-10.45-9.44-15.19-15.18l1188.01-3.04Z"/>
        <path class="cls-29" d="M1148.52,267.18c-5.7,7.44-12.6,16.21-18.23,24.29l-975.33-3.04c-.63-6.76,1.01-14.88,0-21.25l2.9-6.07h986.88l3.78,6.07Z"/>
        <path class="cls-4" d="M1115.09,315.76c-1.99,4.53-3.31,14.23-6.08,21.25l-4.77,5.51c-314.08.69-628.24.87-942.46.57l-3.78-6.07c-.34-7.04.44-14.23,0-21.25h957.1Z"/>
        <path class="cls-13" d="M1109.02,337.01c-2.76,7.01-6.58,14.5-9.12,21.25l-4.77,6.07H161.78l-3.78-6.07c-.28-7.05.34-14.21,0-21.25h951.02Z"/>
        <path class="cls-22" d="M1163.71,248.96c-4.95,6.41-10.97,12.7-15.19,18.22H154.96c-.68-4.32-2.27-15.59-3.04-18.22h1011.79Z"/>
        <path class="cls-10" d="M1099.9,358.27c-2.22,5.9-2.7,10.96-6.08,18.22-.23,1.67-.51,2.98-.96,3.04-9.71,1.32-29.59,2.7-39.48,3.04H164.81l-3.78-6.07c-.34-4.76-2.73-10.57-3.04-18.22h941.9Z"/>
        <path class="cls-8" d="M1093.82,376.48c-.52,1.12,1,4.87-.17,5.79-4.41,3.43-30.7-6.42-45.4,12.43l-4.78,5.67c-275.4.51-560.27.81-835.1-.38l-4.8-2.25c-6.24.27-12.07-4.62-22.1-2.47-8.91,1.9-13.01,10.71-20.41,14.62-.62-11.03.76-22.4-.03-33.4h932.79Z"/>
        <path class="cls-12" d="M987.48,443.28c-4.4,3.76-13.6,13.42-18.23,18.22l-704.91-3.04c-5.15-5.13-10.1-9.9-15.19-15.18l2.9-6.07h731.65l3.78,6.07Z"/>
        <path class="cls-24" d="M1048.25,394.7c-2.12,2.72-3.74,12.31-9.12,18.22l-9.81,3.8c-265.19,2.75-530.58,3.51-796.17,2.28l-11.34-6.07c-4.86-5.1-13.3-9.59-18.23-15.18.92-.04,6.63-5,10.27-3.26l834.4.22Z"/>
        <path class="cls-34" d="M1039.13,412.92c-10.82,11.9-21.1,9.68-30.38,15.18l-18.4,6.07H246.88l-12.92-6.07c-5.14-5.42-8.2-11.02-12.15-15.18h817.33Z"/>
        <path class="cls-5" d="M1008.75,428.1c-3.24,1.92-18.84,13.11-21.27,15.18H249.15c-4.93-5.12-10.18-9.89-15.19-15.18h774.79Z"/>
        <path class="cls-9" d="M100.27,230.75c-6.06,7.12-6.16,20.87-9.12,30.36-3.06,9.36-23.86,8.97-27.35,0-3.96-8.69-12.79-21.83-18.23-30.36,16.13-4.97,38.35-5,54.69,0Z"/>
        <path class="cls-29" d="M91.15,261.11c-4.12,13.22-6.41,27.34-13.67,39.5-2.95,0-11.27-34.23-13.67-39.5h27.35Z"/>
        <path class="cls-21" d="M1051.29,674.03c10.99,4.28,22.19-2.4,32.71,2,4.11,1.72,11.51,14.98,15.91,19.25-25.13,6.73-35.98-.92-48.61-21.25Z"/>
        <path class="cls-27" d="M1007.88,610.9c37.99-11.1,43.23,43.57,5.7,38.77-23.01-2.94-22.11-33.97-5.7-38.77Z"/>
      </g>
    </g>
  </g>
</svg>