<?xml version="1.0" encoding="UTF-8"?>
<svg id="Layer_2" data-name="Layer 2" xmlns="http://www.w3.org/2000/svg" viewBox="0 0 138.57 101.58">
  <defs>
    <style>
      .cls-1 {
        fill: #25408f;
      }
    </style>
  </defs>
  <g id="_2_26_25" data-name="2 26 25">
    <path class="cls-1" d="M138.55,75.32c-.26-9.39-1.28-19.57-2.48-28.9-2.35-18.28-4.07-38.8-24.83-44.95-10.77-3.19-14.67-.67-24.26,2.78-7.16,2.58-16.14,2.6-23.73,2.24-14.86-.71-20.46-10.18-37.03-4.62C6.3,8.55,4.9,28.5,2.59,46.41,1.42,55.54.41,65.28.13,74.38c-.07,2.37-.24,5.84,0,8.12,1.11,10.32,14,20.88,24.34,18.82,5.58-1.11,11.21-6.07,15.13-10.02,4.13-4.16,12.77-15.87,18.5-16.39,7.29-.65,15.57.49,22.96.03,5.23.72,14.13,12.44,18.1,16.39,8.39,8.35,16,13.88,27.75,7.27,9.75-5.49,11.93-12.57,11.63-23.29ZM54.99,43.66c-.22.16-1.64.96-1.74.96h-8.79v7.44c0,.18-.42,1.89-.52,2.18-1.42,3.85-7.07,4.62-9.59,1.45-.3-.38-1.24-2.21-1.24-2.55v-8.52h-8.79c-.14,0-1.21-.55-1.47-.69-3.65-2.01-3.61-7.74.01-9.69.22-.12,1.63-.7,1.73-.7h8.52v-8.52c0-.12.62-1.4.76-1.67,2.28-4.3,8.74-3.54,10.19.99.07.21.4,1.67.4,1.76v7.44h8.52c.12,0,1.61.7,1.85.86,3.29,2.14,3.38,7.01.16,9.28ZM95.44,57.59c-8.08-1.12-8.25-14.25-.23-15.61,12.8-2.17,13.1,17.38.23,15.61ZM112.59,36.11c-11.04,2.97-13.82-13.95-3.86-15.51,10.8-1.69,12.98,13.05,3.86,15.51Z"/>
  </g>
</svg>