<?xml version="1.0" encoding="UTF-8"?>
<svg id="Layer_2" data-name="Layer 2" xmlns="http://www.w3.org/2000/svg" xmlns:xlink="http://www.w3.org/1999/xlink" viewBox="0 0 161.45 128.31">
  <defs>
    <style>
      .cls-1 {
        fill: #25408f;
      }

      .cls-2 {
        fill: none;
      }

      .cls-3 {
        clip-path: url(#clippath);
      }
    </style>
    <clipPath id="clippath">
      <rect class="cls-2" width="161.45" height="128.31"/>
    </clipPath>
  </defs>
  <g id="website">
    <g class="cls-3">
      <path class="cls-1" d="M107.54,87.47c-7.97,0-14.51-7.64-14.51-16.95s6.4-16.96,14.51-16.96,14.65,7.64,14.51,16.96c0,9.31-6.4,16.95-14.51,16.95M53.9,87.47c-7.97,0-14.51-7.64-14.51-16.95s6.4-16.96,14.51-16.96,14.65,7.64,14.51,16.96c.01,9.31-6.4,16.95-14.51,16.95M136.76,10.75C126.31,5.73,115.14,2.08,103.45,0c-1.44,2.66-3.11,6.24-4.27,9.09-12.42-1.92-24.72-1.92-36.91,0C61.12,6.24,59.4,2.66,57.96,0c-11.7,2.08-22.88,5.74-33.33,10.77C3.54,43.48-2.17,75.37.69,106.8c13.98,10.72,27.53,17.23,40.85,21.49,3.29-4.65,6.22-9.59,8.75-14.79-4.81-1.88-9.42-4.19-13.78-6.88,1.16-.88,2.29-1.8,3.38-2.74,26.57,12.76,55.43,12.76,81.68,0,1.1.95,2.24,1.86,3.38,2.74-4.37,2.7-8.99,5.02-13.8,6.9,2.53,5.19,5.45,10.15,8.75,14.79,13.33-4.26,26.9-10.77,40.88-21.5,3.35-36.44-5.73-68.04-24-96.06"/>
    </g>
  </g>
</svg>