<?xml version="1.0" encoding="UTF-8"?>
<svg id="Layer_2" data-name="Layer 2" xmlns="http://www.w3.org/2000/svg" viewBox="0 0 384 383.28">
  <defs>
    <style>
      .cls-1 {
        fill: #25408f;
      }

      .cls-2 {
        fill: #afd65b;
      }

      .cls-3 {
        fill: #ffb266;
      }

      .cls-4 {
        fill: #8dd1ff;
      }
    </style>
  </defs>
  <g id="Layer_3" data-name="Layer 3">
    <g>
      <path class="cls-1" d="M145.3.13c3.99,1.19,8.04,1.86,11.96,3.38,14.95,5.8,23.35,20.08,35.45,29.49,11.44-9.9,20.35-23.84,34.91-29.49,3.92-1.52,7.97-2.19,11.96-3.38,3.85.29,8.2-.4,11.97,0,37.66,4.04,56.37,50.69,32.19,79.71-29.29,28.52-57.31,58.7-87.35,86.25-3.61,1.74-7.74.81-10.71-1.69-29.29-30.51-61.18-58.88-88.88-90.71C78.95,44.25,99.04,3.81,133.32.13h11.97Z"/>
      <path class="cls-3" d="M384,274.75v100.27c-1.64,1.4-1.74,3.76-3.35,5.26-.46.43-4.95,2.98-5.26,2.98h-90.92c.65-2.87,1.34-5.6,1.53-8.57,1.13-18.01,1.4-46.57,0-64.41-1.61-20.39-17.15-41.32-36.7-47.5,2.51-10.81,10.73-14.67,20.47-17.83,20.78,18.57,51.11,21.84,75.25,7.67,3.81-2.24,7.14-5.17,10.76-7.65,11.05,3.49,20.29,9.7,25.11,20.54l3.1,9.25Z"/>
      <path class="cls-1" d="M363.8.13c7.88,2.91,11.21,13.22,4.81,19.4-2.76,2.66-21.18,11.48-25.62,13.29-16.03,6.5-24.44-11.44-10.36-20.09,7.7-4.73,17.32-7.98,25.19-12.59h5.99Z"/>
      <path class="cls-1" d="M27.07.13c7.88,4.61,17.49,7.86,25.19,12.59,13.7,8.41,5.54,25.23-7.78,21.24-3.99-1.19-23.21-10.97-26.92-13.48C9.7,15.17,12.48,3.19,21.08.13h5.99Z"/>
      <path class="cls-2" d="M9.48,383.25c-4.32-.88-8.66-6.35-8.64-10.81,2.15-30.87-2.75-65.37.05-95.81,1.45-15.81,13.67-27.98,28.7-31.66,24.25,22.37,61.47,21.25,86.01-.03,9.54,3.54,17.47,7.03,19.98,17.83-19.59,6.36-35.08,27-36.7,47.5-1.4,17.72-1.26,47.34,0,65.15.19,2.68,1.04,5.22,1.52,7.83H9.48Z"/>
      <path class="cls-4" d="M149.42,280.96c24.1,21.85,61.84,21.86,86.03.04,14.28,4.08,26.68,15.38,28.06,30.8,1.78,19.79-1.32,42.05.03,62.11-.81,5.48-5.39,9.24-10.84,9.37l-123.73-.54c-3.94-1.02-7.15-4.77-7.64-8.82,1.22-19.95-1.57-41.67,0-61.4,1.27-16.06,13.39-27.11,28.1-31.55Z"/>
      <path class="cls-3" d="M307.51,156.73c55.56-6.31,62.11,76.3,10.94,82.03-56.32,6.3-63.69-76.04-10.94-82.03Z"/>
      <path class="cls-2" d="M66.56,156.73c56.01-6.78,62.98,76.51,10.92,82.01-55.7,5.88-62.82-75.73-10.92-82.01Z"/>
      <path class="cls-4" d="M188.54,192.66c29.42-2.77,52.01,25.46,43.18,53.66-10.81,34.54-58.85,38.82-75.81,6.96-13.84-26,3.5-57.88,32.63-60.62Z"/>
      <path class="cls-1" d="M332.9,84.84c2.18-.5,5.5-.3,7.71.21,2.8.65,25.02,11.91,27.3,13.85,9.53,8.09,1.92,21.97-11.06,19.29-2.25-.47-23.58-11.27-25.94-12.97-5.58-4.06-7.31-10.64-3.04-16.41,1-1.34,3.36-3.59,5.02-3.96Z"/>
      <path class="cls-1" d="M44.82,84.86c13.74-2.84,20.19,13.04,8.21,20.93-3.51,2.31-21,11.18-24.6,12.06-14.49,3.54-21.3-12.41-10.11-19.84,2.91-1.93,23.94-12.62,26.5-13.15Z"/>
    </g>
  </g>
</svg>