<?xml version="1.0" encoding="UTF-8"?>
<svg id="Layer_2" data-name="Layer 2" xmlns="http://www.w3.org/2000/svg" viewBox="0 0 469.79 87.67">
  <defs>
    <style>
      .cls-1 {
        fill: #fff;
      }
    </style>
  </defs>
  <g id="website">
    <g>
      <path class="cls-1" d="M184.65,46.39s8.15-14.5,12.7-8.44c4.55,6.06-14.62,23.74-17.54,22.36-2.77-1.31-1.36-3.5,4.83-13.92Z"/>
      <path class="cls-1" d="M170.91,34.58c-6.32-1.08-12.83-2.16-18.9-4.3-5.63-1.99-7.81-4.67-10.03-10.25-3.76-9.44-13.95-18.58-24.35-13.69-11.69,5.5-20.05,18.65-27.76,28.46-2.16,2.74-4.3,5.45-6.41,8.01-9.29,11.24-18.01,19.58-25.3,15.46-6.3-3.56-13.73-2.84-20.29-.42-6.61,2.43-12.62,6.38-18.11,10.75-2.06,1.64-18.04,13.38-19.35,14.42,0,0,0,0-.01.01-.72.57-.41,1.74.51,1.87,3.58.51,12.82.61,25,.61s25.33.01,38,0c27.2-.02,25.47,0,52.64,0,5.34.02,28.9-.08,34.24,0,3.56.05,16.94,0,20.52,0,23.48,0,10.92-6.7,2.06-21.24-8.22-13.49,19.78-25.89-2.45-29.69ZM108.19,60.5c-.58,0-1.06.47-1.06,1.06v3.87c0,.12-.28,1.25-.34,1.44-.94,2.55-4.68,3.06-6.35.96-.2-.25-.82-1.47-.82-1.69v-4.58c0-.58-.47-1.06-1.06-1.06h-4.75c-.1,0-.8-.36-.97-.46-2.42-1.34-2.39-5.13,0-6.42.15-.07,1.08-.46,1.15-.46h4.57c.58,0,1.06-.47,1.06-1.06v-4.58c0-.08.41-.93.51-1.11,1.51-2.85,5.79-2.34,6.74.66.04.14.26,1.1.26,1.16v3.87c0,.58.47,1.06,1.06,1.06h4.57c.08,0,1.07.46,1.23.57,2.17,1.42,2.24,4.63.1,6.14-.15.1-1.08.63-1.15.63h-4.75ZM140.86,69.08c-5.35-.74-5.45-9.43-.15-10.33,8.47-1.43,8.67,11.5.15,10.33ZM152.21,54.87c-7.31,1.97-9.15-9.22-2.56-10.26,7.15-1.12,8.59,8.63,2.56,10.26Z"/>
    </g>
    <g>
      <path class="cls-1" d="M212.11,1.77h5.04l6.29,16.61,6.32-16.61h4.95l-8.98,22.6h-4.65l-8.98-22.6Z"/>
      <path class="cls-1" d="M236.52,2.65c0-1.51,1.18-2.65,2.69-2.65s2.69,1.15,2.69,2.65-1.18,2.65-2.69,2.65-2.69-1.15-2.69-2.65ZM237.07,7.67h4.26v16.71h-4.26V7.67Z"/>
      <path class="cls-1" d="M245.46,7.67h4.26v2.52c1.31-1.74,3.11-2.78,5.31-2.78h.62v4.39h-.62c-3.41,0-5.31,1.8-5.31,4.62v7.96h-4.26V7.67Z"/>
      <path class="cls-1" d="M256.67,15.59c0-4.72,3.51-8.32,8.12-8.32,2.26,0,4.13.85,5.47,2.29v-1.9h4.26v14.91c0,5.08-3.44,8.42-8.58,8.42-4.32,0-7.67-2.33-8.32-5.96h4.39c.49,1.34,2.1,2.19,3.96,2.19,2.62,0,4.29-1.67,4.29-4.46v-1.11c-1.34,1.41-3.21,2.26-5.44,2.26-4.65,0-8.16-3.57-8.16-8.32ZM270.26,15.59c0-2.46-2-4.32-4.59-4.32s-4.62,1.87-4.62,4.32,1.97,4.36,4.62,4.36,4.59-1.87,4.59-4.36Z"/>
      <path class="cls-1" d="M278.03,2.65c0-1.51,1.18-2.65,2.69-2.65s2.69,1.15,2.69,2.65-1.18,2.65-2.69,2.65-2.69-1.15-2.69-2.65ZM278.59,7.67h4.26v16.71h-4.26V7.67Z"/>
      <path class="cls-1" d="M286.97,7.67h4.26v1.87c1.31-1.47,3.15-2.26,5.31-2.26,3.93,0,6.52,2.56,6.52,6.49v5.08c0,.88.52,1.41,1.41,1.41h.36v4.13h-1.21c-3.18,0-4.82-1.57-4.82-4.62v-4.62c0-2.26-1.44-3.73-3.64-3.73-2.36,0-3.93,1.51-3.93,3.8v9.17h-4.26V7.67Z"/>
      <path class="cls-1" d="M306.7,2.65c0-1.51,1.18-2.65,2.69-2.65s2.69,1.15,2.69,2.65-1.18,2.65-2.69,2.65-2.69-1.15-2.69-2.65ZM307.25,7.67h4.26v16.71h-4.26V7.67Z"/>
      <path class="cls-1" d="M314.69,16.02c0-4.98,3.51-8.75,8.16-8.75,2.23,0,4.1.88,5.44,2.36v-1.97h4.26v11.17c0,.88.49,1.41,1.41,1.41h.33v4.13h-1.21c-2.29,0-3.77-.82-4.42-2.42-1.34,1.74-3.37,2.82-5.8,2.82-4.65,0-8.16-3.77-8.16-8.75ZM328.29,16.02c0-2.62-1.97-4.62-4.62-4.62s-4.59,2-4.59,4.62,1.97,4.62,4.59,4.62,4.62-2,4.62-4.62Z"/>
      <path class="cls-1" d="M214.11,33.22h4.52v22.6h-4.52v-22.6Z"/>
      <path class="cls-1" d="M222.95,39.12h4.26v1.87c1.31-1.47,3.15-2.26,5.31-2.26,3.93,0,6.52,2.56,6.52,6.49v5.08c0,.88.52,1.41,1.41,1.41h.36v4.13h-1.21c-3.18,0-4.82-1.57-4.82-4.62v-4.62c0-2.26-1.44-3.73-3.64-3.73-2.36,0-3.93,1.51-3.93,3.8v9.17h-4.26v-16.71Z"/>
      <path class="cls-1" d="M244.15,50.75v-7.73h-2.65v-3.9h1.51c.88,0,1.38-.46,1.38-1.34v-3.11h4.03v4.46h5.44v3.9h-5.44v7.31c0,.98.66,1.61,1.64,1.61s1.67-.72,1.67-1.9h3.8c0,3.54-2.26,5.8-5.77,5.8s-5.6-2.03-5.6-5.08Z"/>
      <path class="cls-1" d="M256.57,47.47c0-4.98,3.87-8.75,8.98-8.75s8.98,3.77,8.98,8.81c0,.46-.03.98-.13,1.41h-13.27c.56,2.16,2.29,3.57,4.59,3.57,1.74,0,3.18-.79,3.93-1.87h4.62c-1.28,3.31-4.59,5.57-8.65,5.57-5.18,0-9.04-3.77-9.04-8.75ZM261.16,45.83h8.81c-.52-2.03-2.23-3.41-4.42-3.41s-3.8,1.34-4.39,3.41Z"/>
      <path class="cls-1" d="M277.5,39.12h4.26v2.52c1.31-1.74,3.11-2.78,5.31-2.78h.62v4.39h-.62c-3.41,0-5.31,1.8-5.31,4.62v7.96h-4.26v-16.71Z"/>
      <path class="cls-1" d="M289.76,44.79h9.57v4.13h-9.57v-4.13Z"/>
      <path class="cls-1" d="M302.4,44.52c0-6.65,5.11-11.7,11.92-11.7,5.73,0,10.32,3.67,11.37,8.81h-4.78c-.92-2.65-3.51-4.46-6.58-4.46-4.16,0-7.31,3.15-7.31,7.34s3.15,7.34,7.31,7.34c3.08,0,5.67-1.8,6.58-4.46h4.78c-1.05,5.14-5.63,8.81-11.37,8.81-6.81,0-11.92-5.05-11.92-11.7Z"/>
      <path class="cls-1" d="M327.86,47.47c0-4.98,3.87-8.75,8.98-8.75s8.98,3.77,8.98,8.75-3.87,8.75-8.98,8.75-8.98-3.77-8.98-8.75ZM341.42,47.47c0-2.62-1.93-4.62-4.59-4.62s-4.59,2-4.59,4.62,1.97,4.62,4.59,4.62,4.59-2,4.59-4.62Z"/>
      <path class="cls-1" d="M348.83,50.88v-18.64h4.26v17.72c0,1.08.66,1.74,1.83,1.74h1.02v4.13h-1.64c-3.6,0-5.47-1.7-5.47-4.95Z"/>
      <path class="cls-1" d="M358.2,50.88v-18.64h4.26v17.72c0,1.08.66,1.74,1.83,1.74h1.02v4.13h-1.64c-3.6,0-5.47-1.7-5.47-4.95Z"/>
      <path class="cls-1" d="M366.49,47.47c0-4.98,3.87-8.75,8.98-8.75s8.98,3.77,8.98,8.81c0,.46-.03.98-.13,1.41h-13.27c.56,2.16,2.29,3.57,4.59,3.57,1.74,0,3.18-.79,3.93-1.87h4.62c-1.28,3.31-4.59,5.57-8.65,5.57-5.18,0-9.04-3.77-9.04-8.75ZM371.08,45.83h8.81c-.52-2.03-2.23-3.41-4.42-3.41s-3.8,1.34-4.39,3.41Z"/>
      <path class="cls-1" d="M386.51,47.05c0-4.72,3.51-8.32,8.12-8.32,2.26,0,4.13.85,5.47,2.29v-1.9h4.26v14.91c0,5.08-3.44,8.42-8.58,8.42-4.32,0-7.67-2.33-8.32-5.96h4.39c.49,1.34,2.1,2.19,3.96,2.19,2.62,0,4.29-1.67,4.29-4.46v-1.11c-1.34,1.41-3.21,2.26-5.44,2.26-4.65,0-8.16-3.57-8.16-8.32ZM400.1,47.05c0-2.46-2-4.32-4.59-4.32s-4.62,1.87-4.62,4.32,1.97,4.36,4.62,4.36,4.59-1.87,4.59-4.36Z"/>
      <path class="cls-1" d="M407.87,34.11c0-1.51,1.18-2.65,2.69-2.65s2.69,1.15,2.69,2.65-1.18,2.65-2.69,2.65-2.69-1.15-2.69-2.65ZM408.43,39.12h4.26v16.71h-4.26v-16.71Z"/>
      <path class="cls-1" d="M415.86,47.47c0-4.98,3.51-8.75,8.16-8.75,2.23,0,4.1.88,5.44,2.36v-1.97h4.26v11.17c0,.88.49,1.41,1.41,1.41h.33v4.13h-1.21c-2.29,0-3.77-.82-4.42-2.42-1.34,1.74-3.37,2.82-5.8,2.82-4.65,0-8.16-3.77-8.16-8.75ZM429.46,47.47c0-2.62-1.97-4.62-4.62-4.62s-4.59,2-4.59,4.62,1.97,4.62,4.59,4.62,4.62-2,4.62-4.62Z"/>
      <path class="cls-1" d="M439.42,50.75v-7.73h-2.65v-3.9h1.51c.88,0,1.38-.46,1.38-1.34v-3.11h4.03v4.46h5.44v3.9h-5.44v7.31c0,.98.65,1.61,1.64,1.61s1.67-.72,1.67-1.9h3.8c0,3.54-2.26,5.8-5.77,5.8s-5.6-2.03-5.6-5.08Z"/>
      <path class="cls-1" d="M451.84,47.47c0-4.98,3.87-8.75,8.98-8.75s8.98,3.77,8.98,8.81c0,.46-.03.98-.13,1.41h-13.27c.56,2.16,2.29,3.57,4.59,3.57,1.74,0,3.18-.79,3.93-1.87h4.62c-1.28,3.31-4.59,5.57-8.65,5.57-5.18,0-9.04-3.77-9.04-8.75ZM456.42,45.83h8.81c-.52-2.03-2.23-3.41-4.42-3.41s-3.8,1.34-4.39,3.41Z"/>
      <path class="cls-1" d="M212.99,75.98c0-6.65,5.11-11.7,11.93-11.7,5.31,0,9.73,3.11,11.04,7.5h-5.04c-1.21-1.93-3.41-3.15-6-3.15-4.16,0-7.31,3.15-7.31,7.34s3.15,7.34,7.31,7.34c3.24,0,5.73-1.9,6.58-4.65h-5.86v-4.1h10.75v12.71h-3.83v-3.41c-1.57,2.49-4.19,3.8-7.63,3.8-6.81,0-11.93-5.05-11.93-11.7Z"/>
      <path class="cls-1" d="M239.07,78.93c0-4.98,3.51-8.75,8.16-8.75,2.23,0,4.1.88,5.44,2.36v-1.97h4.26v11.17c0,.88.49,1.41,1.41,1.41h.33v4.13h-1.21c-2.29,0-3.77-.82-4.42-2.42-1.34,1.74-3.37,2.82-5.8,2.82-4.65,0-8.16-3.77-8.16-8.75ZM252.67,78.93c0-2.62-1.97-4.62-4.62-4.62s-4.59,2-4.59,4.62,1.97,4.62,4.59,4.62,4.62-2,4.62-4.62Z"/>
      <path class="cls-1" d="M261.22,70.57h4.26v1.74c1.25-1.41,2.92-2.13,4.95-2.13,2.39,0,4.29,1.08,5.31,2.88,1.31-1.87,3.28-2.88,5.73-2.88,3.67,0,6.13,2.46,6.13,6.22v5.34c0,.88.52,1.41,1.41,1.41h.36v4.13h-1.21c-3.18,0-4.82-1.57-4.82-4.62v-4.98c0-2.03-1.28-3.37-3.28-3.37-2.1,0-3.51,1.38-3.51,3.44v9.53h-4.26v-9.6c0-2.03-1.31-3.37-3.28-3.37-2.1,0-3.54,1.38-3.54,3.44v9.53h-4.26v-16.71Z"/>
      <path class="cls-1" d="M290.77,78.93c0-4.98,3.87-8.75,8.98-8.75s8.98,3.77,8.98,8.81c0,.46-.03.98-.13,1.41h-13.27c.56,2.16,2.29,3.57,4.59,3.57,1.74,0,3.18-.79,3.93-1.87h4.62c-1.28,3.31-4.59,5.57-8.65,5.57-5.18,0-9.04-3.77-9.04-8.75ZM295.36,77.29h8.81c-.52-2.03-2.23-3.41-4.42-3.41s-3.8,1.34-4.39,3.41Z"/>
      <path class="cls-1" d="M317.61,79.91h4.65c0,2.03,1.34,3.41,3.18,3.41s3.18-1.38,3.18-3.18v-15.46h4.52v15.46c0,4.29-3.31,7.53-7.76,7.53s-7.76-3.24-7.76-7.76Z"/>
      <path class="cls-1" d="M336.08,78.93c0-4.98,3.51-8.75,8.16-8.75,2.23,0,4.1.88,5.44,2.36v-1.97h4.26v11.17c0,.88.49,1.41,1.41,1.41h.33v4.13h-1.21c-2.29,0-3.77-.82-4.42-2.42-1.34,1.74-3.37,2.82-5.8,2.82-4.65,0-8.16-3.77-8.16-8.75ZM349.68,78.93c0-2.62-1.97-4.62-4.62-4.62s-4.59,2-4.59,4.62,1.97,4.62,4.59,4.62,4.62-2,4.62-4.62Z"/>
      <path class="cls-1" d="M358.23,70.57h4.26v1.74c1.25-1.41,2.92-2.13,4.95-2.13,2.39,0,4.29,1.08,5.31,2.88,1.31-1.87,3.28-2.88,5.73-2.88,3.67,0,6.13,2.46,6.13,6.22v5.34c0,.88.52,1.41,1.41,1.41h.36v4.13h-1.21c-3.18,0-4.82-1.57-4.82-4.62v-4.98c0-2.03-1.28-3.37-3.28-3.37-2.1,0-3.51,1.38-3.51,3.44v9.53h-4.26v-9.6c0-2.03-1.31-3.37-3.28-3.37-2.1,0-3.54,1.38-3.54,3.44v9.53h-4.26v-16.71Z"/>
    </g>
  </g>
</svg>