<?xml version="1.0" encoding="UTF-8"?>
<svg id="Layer_2" data-name="Layer 2" xmlns="http://www.w3.org/2000/svg" viewBox="0 0 147.77 147.84">
  <defs>
    <style>
      .cls-1 {
        fill: #25408f;
      }
    </style>
  </defs>
  <g id="_2_26_25" data-name="2 26 25">
    <path class="cls-1" d="M78.82,0l7.27.95c61.68,10.7,83.91,88.9,34.98,129.78C77.11,167.47,10.43,141.57,1.01,86.07l-.95-7.28c.14-3.23-.19-6.6,0-9.81C2.25,32.77,32.82,2.19,69.01,0h9.81ZM69.59,9.52c-10.25,3.84-16.17,15.35-19.62,25.11h19.62V9.52ZM97.86,34.63c-3.45-9.76-9.37-21.27-19.62-25.11v25.11h19.62ZM21.99,34.63h18.75c.95-4.2,3.02-8,4.65-11.94l6.17-9.99c-11.72,4.22-22.12,11.98-29.57,21.94ZM125.84,34.63c-7.45-9.96-17.85-17.71-29.57-21.94l6.17,9.99c1.63,3.95,3.7,7.74,4.65,11.94h18.75ZM38.14,43.29h-21.93c-3.91,8.23-6.91,17.04-7.21,26.26h25.68c.41-8.84,1.36-17.68,3.46-26.26ZM69.59,43.29h-22.5c-.96,4.26-1.98,8.54-2.56,12.88-.6,4.43-.7,8.94-1.19,13.38h26.25v-26.26ZM100.75,43.29h-22.5v26.26h26.25c-.49-4.44-.59-8.95-1.19-13.38-.58-4.34-1.6-8.62-2.56-12.88ZM131.61,43.29h-21.93c2.09,8.59,3.06,17.42,3.46,26.26h25.68c-.3-9.22-3.31-18.04-7.21-26.26ZM34.68,78.21H9.01c.3,9.22,3.31,18.04,7.21,26.26h21.93c-2.09-8.59-3.06-17.42-3.46-26.26ZM69.59,78.21h-26.25c.49,4.44.59,8.95,1.19,13.38.58,4.34,1.6,8.62,2.56,12.88h22.5v-26.26ZM104.5,78.21h-26.25v26.26h22.5c.96-4.26,1.98-8.54,2.56-12.88.6-4.43.7-8.94,1.19-13.38ZM138.83,78.21h-25.68c-.4,8.84-1.37,17.67-3.46,26.26h21.93c3.9-8.23,6.91-17.05,7.21-26.26ZM40.74,113.14h-18.75c7.45,9.96,17.85,17.71,29.57,21.94l-6.17-9.99c-1.63-3.95-3.7-7.74-4.65-11.94ZM69.59,113.14h-19.62c3.45,9.76,9.37,21.27,19.62,25.11v-25.11ZM97.86,113.14h-19.62v25.11c10.28-3.84,16.16-15.34,19.62-25.11ZM125.84,113.14h-18.75c-.97,4.19-3.03,8-4.65,11.94l-6.17,9.99c11.74-4.21,22.07-12.02,29.57-21.94Z"/>
  </g>
</svg>