<?xml version="1.0" encoding="UTF-8"?>
<svg id="Layer_2" data-name="Layer 2" xmlns="http://www.w3.org/2000/svg" viewBox="0 0 129.88 121.24">
  <defs>
    <style>
      .cls-1 {
        fill: #25408f;
      }
    </style>
  </defs>
  <g id="Layer_3" data-name="Layer 3">
    <path class="cls-1" d="M25.97,95.25h-14.75C6.24,95.25-.04,88.53,0,83.48V11.78C.65,5.55,5.73.49,12.03,0h105.81c6.43.5,11.46,5.66,12.04,12.04v70.91c-.36,6.37-5.46,11.66-11.78,12.29l-53.78.06-31.76,25.33c-1.96,1.11-4.45.66-5.78-1.17-.19-.26-.81-1.43-.81-1.63v-22.59ZM29.69,34.71c-5.11,1.09-4.83,8,.48,8.59h69.54c5.52-.62,5.52-8.04,0-8.66l-70.02.07ZM29.69,52.02c-5.02,1.07-4.83,7.74.23,8.57h35.4c5.2-.89,5.18-7.74,0-8.61l-35.63.04Z"/>
  </g>
</svg>