<?xml version="1.0" encoding="UTF-8"?>
<svg id="Layer_2" data-name="Layer 2" xmlns="http://www.w3.org/2000/svg" viewBox="0 0 125.08 155.48">
  <defs>
    <style>
      .cls-1 {
        fill: #25408f;
      }
    </style>
  </defs>
  <g id="Layer_3" data-name="Layer 3">
    <g>
      <path class="cls-1" d="M100.18,155.48l-26.11-45.23c2.86.21,5.22-.43,7.63-1.94,4.92-3.07,4.26-7.42,10.52-9.52,1.69-.57,7.13-1.76,8.73-1.63.45.04.81.06,1.03.52l23.11,43.38-18.22-2.14-6.37,16.56h-.3Z"/>
      <path class="cls-1" d="M48.8.12c4.15-.71,6.23,1.92,9.73,2.88,6.14,1.67,7.69-.31,12.82-2.19,9.5-3.48,9.53,6.22,16.18,9.62,6.12,3.12,14.15-.58,15.66,8.63.54,3.3.13,5.56,1.8,8.83,1.91,3.75,4.37,4.35,7.18,6.78,7.32,6.33-.39,11.02-.47,18.06-.09,7.15,8.04,12.13.3,18.49-2.58,2.12-4.81,2.79-6.71,6.04-2.05,3.49-1.52,5.83-2.1,9.44-1.5,9.35-10.25,5.24-16.45,9.05-3.17,1.95-3.75,4.04-5.85,6.59-6.19,7.54-11.1-.23-18.18-.3s-12.25,7.76-18.37.47c-3.46-4.13-3.94-6.95-10.08-8.44-3.97-.97-8.98.19-11.3-4.19-1.98-3.74-.53-8.14-3.17-12.61-1.95-3.31-4.06-3.87-6.7-6.05-7.71-6.33.37-11.31.3-18.5s-7.8-11.88-.47-18.05c2.85-2.4,5.26-3.04,7.18-6.78,3.19-6.22-.62-14.09,8.63-15.66,4.51-.76,7.27-.11,11.2-3.38C42.87,6.38,44.8.8,48.8.12ZM59.14,22c-20.62,1.92-33.19,24.2-25.09,43.13,9.92,23.21,42.54,25.25,55.26,3.43,12.95-22.21-4.72-48.93-30.17-46.56Z"/>
      <path class="cls-1" d="M50.39,109.95l-21.25,44.62-10.53-15.49-18.61,2.13,23.22-45.83c2.56,3.51,6.83,2.27,10.54,3.12,8.21,1.88,7.83,11.41,16.64,11.45Z"/>
      <path class="cls-1" d="M65.16,37.93l3.18,6.54c.41.84,1.2,1.42,2.12,1.56l7.58,1.15c2.28.35,3.21,3.12,1.6,4.77l-5.43,5.57c-.63.64-.91,1.55-.77,2.44l1.22,7.37c.38,2.3-2.02,4.05-4.09,2.98l-6.62-3.42c-.81-.42-1.77-.42-2.58-.01l-6.9,3.49c-2.07,1.05-4.45-.7-4.07-2.99l1.28-7.7c.15-.91-.15-1.83-.8-2.48l-5.29-5.24c-1.65-1.64-.74-4.46,1.56-4.81l7.56-1.15c.88-.13,1.64-.67,2.06-1.45,1.01-1.89,2.22-4.44,3.29-6.64s4.06-2.12,5.09,0Z"/>
    </g>
  </g>
</svg>