<?xml version="1.0" encoding="UTF-8"?>
<svg id="Layer_2" data-name="Layer 2" xmlns="http://www.w3.org/2000/svg" viewBox="0 0 142.18 118.89">
  <defs>
    <style>
      .cls-1 {
        fill: #25408f;
      }
    </style>
  </defs>
  <g id="_2_26_25" data-name="2 26 25">
    <g>
      <path class="cls-1" d="M135.38,20.75c-.25-.17-.72-.47-2.27-1.2-1.32-.62-2.57-1.2-4.29-1.2h-4.75v-3.24c0-1.56-.79-4.27-.91-4.68h0c-1.99-6.24-7.82-10.44-14.49-10.44-5.61,0-10.52,2.93-13.12,7.84-1.84,3.44-1.92,4.73-1.92,5.63-3.75-2.13-7.96-3.45-12.3-3.72-7.24-.44-15.05.25-22.33.15l17.55,17.55c-.75,1.81-1.16,3.81-1.17,5.87-.02,4.3,1.7,8.3,4.64,11.09H0v47.76c0,.89.68,3.45.95,4.46,3.17,11.9,14.1,21.17,26.5,21.93,17.64,1.08,36.38-.85,54.14,0,12.46-.13,27.18-13.87,27.18-26.39v-25.38c2.9-.02,5.71-.81,8.13-2.3,2.79-1.72,4.86-4.22,5.97-7.24v-.04s.03-.03.03-.03c.01-.03,1.16-3.59,1.16-5.51v-3.24h5.13c1.98,0,3.3-.74,4.69-1.51,1.36-.76,1.77-1.05,1.92-1.16,4.09-2.88,6.47-7.61,6.38-12.64-.09-5.01-2.64-9.63-6.8-12.36ZM71.35,78.54c-7.42,4.94-16.88,8.5-24.44,13.44-3.67,1.74-7.07-.52-7.42-4.42-.78-8.68.61-18.53.01-27.34.11-.97.78-2.58,1.45-3.29,1.21-1.3,3.69-1.89,5.31-1.03,7.83,4.71,17.09,8.53,24.71,13.44,4.02,2.6,4.53,6.43.38,9.2ZM133.72,42.79c-.36.25-1.16.71-1.6.96-1.17.66-1.89,1.06-2.92,1.06h-8.75v6.86c0,1.09-.9,4.14-.95,4.29h0s0,.03,0,.03c-1.6,4.33-5.79,7.14-10.71,7.18h-.12c-3.38,0-6.47-1.36-8.57-3.76-.11-.12-.21-.25-.32-.38t0,0s0,0,0,0c-.43-.54-.93-1.47-1.27-2.13-.04-.08-.08-.16-.12-.22-.01-.04-.03-.07-.05-.1-.04-.08-.08-.16-.11-.23-.06-.13-.12-.25-.18-.38-.08-.17-.15-.33-.21-.48-.42-.97-.55-1.56-.57-2.08,0-.07,0-.14,0-.2v-8.38h-8.75c-.13,0-.27,0-.46-.02-.08-.01-.16-.02-.24-.04h0c-.07-.01-.14-.03-.21-.05-.08-.02-.16-.04-.25-.07h0c-.18-.05-.38-.13-.62-.23-.04-.01-.07-.03-.11-.05,0,0,0,0-.01,0-.14-.07-.3-.13-.47-.21,0,0,0,0-.01,0-.11-.05-.23-.11-.35-.17-.32-.16-.67-.35-1.07-.57-.11-.06-.22-.12-.33-.19-.22-.13-.43-.26-.63-.4t0,0c-.19-.13-.37-.27-.55-.42-.02-.01-.04-.03-.06-.05-.18-.15-.36-.3-.53-.47h0c-.18-.17-.35-.34-.52-.52t0,0c-.17-.18-.33-.37-.48-.55h0c-.16-.2-.3-.39-.45-.59-.07-.1-.14-.2-.21-.3-.14-.21-.27-.42-.39-.64-.1-.18-.2-.36-.29-.55-.19-.37-.36-.75-.5-1.15-.09-.24-.17-.48-.24-.72-.33-1.11-.51-2.29-.5-3.5,0-1.05.14-2.07.4-3.04.07-.26.14-.51.23-.76.12-.36.26-.71.42-1.05.26-.57.56-1.11.9-1.63.07-.1.14-.21.21-.3.22-.3.45-.59.69-.87.28-.32.58-.62.9-.9.19-.17.39-.34.6-.49.43-.33.89-.63,1.38-.89.04-.02.09-.05.2-.1.05-.03.12-.05.2-.09.48-.23,1.33-.63,2.18-.9.01,0,.03-.01.04-.01.53-.2.91-.29,1.36-.31.06,0,.12,0,.18,0h8.37v-8.38c0-.44,0-1.25,1.49-4.05.06-.12.12-.23.19-.34.13-.22.27-.44.41-.66.43-.64.91-1.23,1.45-1.75.27-.26.55-.51.84-.75t0,0c.29-.23.59-.45.9-.65,1.77-1.14,3.88-1.77,6.14-1.77,2.55,0,4.93.8,6.86,2.18,1.94,1.39,3.42,3.37,4.18,5.74.01.05.05.17.09.34,0,.03.01.05.02.08,0,.02,0,.03.01.05.02.06.04.13.05.2.02.07.04.14.06.22.01.04.02.09.03.13.04.18.09.37.14.57.05.25.11.5.16.75,0,.05.02.1.03.15,0,.02,0,.03.01.05.01.08.03.16.04.24,0,.01,0,.02,0,.03.01.08.03.16.04.23.03.21.05.39.05.54v6.85h8.37c.05,0,.1,0,.16,0,.52.02.98.15,1.62.41,0,0,0,0,.01,0,.75.29,1.5.66,2.04.95h.02c.42.22.61.34.71.41.01,0,.02.01.03.02h0c1.09.71,2.04,1.59,2.8,2.6.14.18.27.37.4.56.06.1.13.2.19.29.43.68.79,1.41,1.07,2.17.44,1.2.68,2.48.71,3.79.07,3.83-1.74,7.42-4.85,9.62Z"/>
      <polygon class="cls-1" points="69.54 34.38 51.27 34.38 27.46 10.58 27.06 9.76 45.05 9.76 69.54 34.38"/>
      <path class="cls-1" d="M37.34,34.38H.54c1.16-9.09,7.43-17.28,15.56-21.3l21.24,21.3Z"/>
      <path class="cls-1" d="M131.64,39.84c-.31.22-2.31,1.35-2.45,1.35h-12.36v10.47c0,.25-.59,2.66-.74,3.07-1.14,3.1-4.23,4.78-7.32,4.82h-.12c-2.28,0-4.57-.9-6.07-2.78-.43-.54-1.74-3.11-1.74-3.59v-11.99h-12.37c-.2,0-1.7-.77-2.06-.98-2.53-1.4-3.8-4.05-3.83-6.72-.03-2.76,1.25-5.53,3.85-6.92.31-.17,2.3-.99,2.43-.99h11.98v-11.99c0-.17.87-1.97,1.07-2.36,1.44-2.73,4.08-4.01,6.74-4.01,3.23,0,6.48,1.9,7.6,5.4.1.3.57,2.35.57,2.48v10.46h11.98c.17,0,2.27.99,2.6,1.21,4.62,3.01,4.75,9.86.23,13.05Z"/>
    </g>
  </g>
</svg>