<?xml version="1.0" encoding="UTF-8"?>
<svg id="Layer_2" data-name="Layer 2" xmlns="http://www.w3.org/2000/svg" xmlns:xlink="http://www.w3.org/1999/xlink" viewBox="0 0 141.06 141.73">
  <defs>
    <style>
      .cls-1 {
        fill: #25408f;
      }

      .cls-2 {
        fill: none;
      }

      .cls-3 {
        clip-path: url(#clippath);
      }
    </style>
    <clipPath id="clippath">
      <rect class="cls-2" y="0" width="141.06" height="141.73"/>
    </clipPath>
  </defs>
  <g id="website">
    <g class="cls-3">
      <path class="cls-1" d="M53.11,61.39c-.86.92-1.74,3-1.88,4.26.78,11.42-1.03,24.2-.01,35.46.46,5.06,4.86,7.98,9.62,5.73,9.8-6.41,22.07-11.03,31.69-17.43,5.38-3.58,4.72-8.57-.49-11.93-9.88-6.37-21.88-11.32-32.04-17.43-2.1-1.1-5.31-.35-6.89,1.34M141.06,45.13v61.93c0,16.23-19.09,34.05-35.25,34.23-23.03-1.1-47.33,1.41-70.21,0-16.08-.99-30.25-13.01-34.37-28.44C.88,111.53,0,108.22,0,107.06v-61.93h141.06Z"/>
      <path class="cls-1" d="M140.36,32.14h-32.11L76.5.39c9.44.13,19.58-.77,28.96-.19,17.16,1.06,32.66,14.83,34.9,31.95"/>
      <polygon class="cls-1" points="35.09 .21 35.61 1.27 66.49 32.14 90.18 32.14 58.42 .21 35.09 .21"/>
      <path class="cls-1" d="M48.42,32.14H.7C2.21,20.36,10.33,9.73,20.88,4.52l27.54,27.62Z"/>
    </g>
  </g>
</svg>